<?xml version="1.0" encoding="utf-8"?>
<!-- Generator: Adobe Illustrator 19.0.0, SVG Export Plug-In . SVG Version: 6.00 Build 0)  -->
<svg version="1.1" id="Layer_1" xmlns="http://www.w3.org/2000/svg" xmlns:xlink="http://www.w3.org/1999/xlink" x="0px" y="0px"
	 viewBox="200 -201.3 492 492" style="enable-background:new 200 -201.3 492 492;" xml:space="preserve">
<style type="text/css">
	.st0{fill:#FF9F0C;}
</style>
<g>
	<g>
		<path class="st0" d="M227.7,83.3l-0.8-0.2h329.2L452.6,186.8c-5.1,5.1-7.8,11.9-7.8,19.1c0,7.2,2.8,14,7.8,19.1l16.1,16.1
			c5.1,5.1,11.8,7.9,19,7.9c7.2,0,14-2.8,19-7.8L684.2,63.8c5.1-5.1,7.9-11.9,7.8-19.1c0-7.2-2.8-14-7.8-19.1L506.7-151.8
			c-5.1-5.1-11.8-7.8-19-7.8c-7.2,0-13.9,2.8-19,7.8l-16.1,16.1c-5.1,5.1-7.8,11.8-7.8,19c0,7.2,2.8,13.6,7.8,18.7L557.3,6.3h-330
			c-14.8,0-27.3,12.8-27.3,27.6v22.8C200,71.5,212.8,83.3,227.7,83.3z"/>
	</g>
</g>
</svg>
