<?xml version="1.0" encoding="utf-8"?>
<!-- Generator: Adobe Illustrator 19.0.0, SVG Export Plug-In . SVG Version: 6.00 Build 0)  -->
<svg version="1.1" xmlns="http://www.w3.org/2000/svg" xmlns:xlink="http://www.w3.org/1999/xlink" x="0px" y="0px"
	 viewBox="0 0 500 500" style="enable-background:new 0 0 500 500;" xml:space="preserve">
<style type="text/css">
	.st0{fill:#FFE5C5;}
	.st1{fill:#74818E;}
	.st2{fill:#FDA080;}
	.st3{fill:#F4907C;}
	.st4{fill:#D4D2D1;}
	.st5{opacity:0.4;fill:#808080;}
	.st6{opacity:0.4;}
	.st7{fill:#808080;}
	.st8{fill:#E5E5E5;}
	.st9{fill:#666666;}
	.st10{fill:#CBCBCB;}
	.st11{fill:#FFFFFF;}
	.st12{fill:#A5B4C2;}
	.st13{fill:#EAC9B8;}
	.st14{fill:#C4CCD7;}
	.st15{fill:#FAD1B1;}
	.st16{fill:#647889;}
	.st17{fill:#F8FBFC;}
	.st18{fill:#FDF5EA;}
	.st19{fill:#80C1D8;}
	.st20{fill:#F39475;}
	.st21{fill:#E74A5F;}
	.st22{fill:#C9364F;}
	.st23{fill:#393F4B;}
	.st24{fill:#11114E;}
	.st25{fill:#63ADC1;}
	.st26{fill:#6F251E;}
	.st27{fill:#E28166;}
	.st28{fill:#F16A44;}
	.st29{fill:#93603D;}
	.st30{fill:#A4704C;}
	.st31{opacity:0.5;}
	.st32{fill:#F9E1DF;}
</style>
<g id="BACKGROUND">
</g>
<g id="OBJECTS">
	<g id="XMLID_1_">
		<path id="XMLID_101_" class="st0" d="M67.6,500H500V0H300.1c-47.8,8.6-112.8,10-123,41.6c-22,68.2,40.8,106,0,146.8
			c-40.8,40.8-147.4,96.3-94.8,164.2c52.7,67.9,13.2,66.4,0,86.2C71.8,454.6,60,477.7,67.6,500z"/>
		<path id="XMLID_100_" class="st1" d="M407.8,462.6c-3.9,0-7.2-3.1-7.5-7c-0.3-4.1,2.9-7.7,7-8c0.2,0,9.2-0.7,21-5.5
			c15.8-6.4,29-16.8,39.3-30.9c2.4-3.3,7.1-4.1,10.5-1.6c3.3,2.4,4.1,7.1,1.6,10.5c-28.9,39.5-69.7,42.4-71.4,42.5
			C408.1,462.6,408,462.6,407.8,462.6z"/>
		<path id="XMLID_99_" class="st1" d="M116.8,327.4c0-3.9,3.1-7.2,7-7.5c4.1-0.3,7.7,2.9,8,7c0,0.2,0.7,9.2,5.5,21
			c6.4,15.8,16.8,29,30.9,39.3c3.3,2.4,4.1,7.1,1.6,10.5c-2.4,3.3-7.1,4.1-10.5,1.6c-39.5-28.9-42.4-69.7-42.5-71.4
			C116.8,327.7,116.8,327.5,116.8,327.4z"/>
		<path id="XMLID_98_" class="st1" d="M340.1,31.6c2.9,2.6,3.3,7.1,0.8,10.2c-2.6,3.2-7.3,3.8-10.5,1.2c-0.2-0.1-7.3-5.6-19.3-9.9
			c-16-5.8-32.8-6.9-49.8-3.3c-4.1,0.8-8-1.8-8.9-5.8c-0.8-4.1,1.8-8,5.8-8.9c47.9-10,80.2,15.1,81.5,16.2
			C339.9,31.4,340,31.5,340.1,31.6z"/>
		<polygon id="XMLID_97_" class="st2" points="155.1,321.1 198.3,298.5 214.6,341.3 171.7,356.4 		"/>
		<path id="XMLID_96_" class="st3" d="M169,319.2c0,0,13.6-2.8,19.4,0c5.8,2.8,10.7,20,10.7,20l28.5,2l-25.8-48.4l-26.7,12.7
			L169,319.2z"/>
		<path id="XMLID_95_" class="st4" d="M178.4,158.9c-21.9,9.6-31.9,35.2-22.2,57.1l73.3,167c9.6,21.9,35.2,31.9,57.1,22.2L500,311.5
			V17.7L178.4,158.9z"/>
		<circle id="XMLID_94_" class="st5" cx="466.1" cy="290.7" r="14.6"/>
		<circle id="XMLID_93_" class="st5" cx="408.6" cy="98.8" r="14.6"/>
		<circle id="XMLID_92_" class="st5" cx="201.9" cy="208.2" r="14.6"/>
		<g id="XMLID_203_" class="st6">
			<path id="XMLID_91_" class="st7" d="M302.4,301l-13.9,14.2l-58.3,50.6l-9.1-2.1l8.5,19.3c0.8,1.8,1.7,3.5,2.7,5.1
				c6.9-1.9,15.5-4.6,19.3-7.6c6.7-5.3,37.3-48.3,37.3-48.3s9.1-5.6,10.3-8.7c1.2-3,3.5-16.3,4.4-18.5
				C304.5,302.8,302.4,301,302.4,301z"/>
			<path id="XMLID_90_" class="st7" d="M249.6,293.1c3.1-0.3,5.5-4.7,5.5-4.7l4.9-2.2l0.6-4.8l-8.1-3.4l-45.6-13.1l-28.3-6.2
				l-1.4,4.8l8.3,18.9l47.5,9.4C232.9,291.8,246.5,293.5,249.6,293.1z"/>
		</g>
		<path id="XMLID_89_" class="st5" d="M389.6,257.3l3.2,29.5l16.8,27.2l25.6,26l-105.9,46.3l-6.3-51l-6-27.2l-16.8-28.8l87.9-38.3
			c0,0,0.6,1,0.7,1.9S389.6,257.3,389.6,257.3z"/>
		<g id="XMLID_195_">
			<path id="XMLID_88_" class="st8" d="M388.3,259l-75.3,32.5c-1.5,0.7-2.2,2.4-1.6,3.9l21.5,49.7c0.7,1.5,2.4,2.2,3.9,1.6
				l75.3-32.5c1.5-0.7,2.2-2.4,1.6-3.9l-21.5-49.7C391.6,259,389.9,258.3,388.3,259z"/>
			<path id="XMLID_87_" class="st9" d="M381.4,264.4l-59.6,25.8c-1.2,0.5-1.8,2-1.3,3.2l12.9,29.8c0.5,1.2,2,1.8,3.2,1.3l59.6-25.8
				c1.2-0.5,1.8-2,1.3-3.2l-12.9-29.8C384.1,264.5,382.6,263.9,381.4,264.4z"/>
			<path id="XMLID_86_" class="st10" d="M372.5,311.8l-10.1,4.4c-1.3,0.6-1.9,2-1.3,3.3l3.6,8.3c0.6,1.3,2,1.9,3.3,1.3l10.1-4.4
				c1.3-0.5,1.9-2,1.3-3.3l-3.6-8.3C375.2,311.8,373.8,311.3,372.5,311.8z"/>
			<path id="XMLID_85_" class="st11" d="M385.6,240.5l-42.1,18.2l-42.1,18.2c-1.4,0.6-1.8,2.4-0.7,3.5l10.2,10.9
				c0.5,0.5,1.2,0.6,1.8,0.4l37.9-16.4l37.9-16.4c0.6-0.3,1-0.9,1-1.6l-0.9-14.9C388.6,240.8,387,239.9,385.6,240.5z"/>
			<path id="XMLID_84_" class="st7" d="M389.6,257.3l-0.9-14.8c-0.6-0.5-1.5-0.7-2.4-0.3l-42.1,18.2l-42.1,18.2
				c-0.9,0.4-1.4,1.2-1.4,2l10.2,10.8c0.5,0.5,1.2,0.6,1.8,0.4l37.9-16.4l37.9-16.4C389.3,258.6,389.6,258,389.6,257.3z"/>
			<path id="XMLID_83_" class="st12" d="M385.9,258.2l-0.3-12.2c-0.5-0.4-1.3-0.5-2.1-0.2l-38.3,16.6l-38.3,16.6
				c-0.8,0.3-1.3,1-1.3,1.7l8.7,8.6c0.4,0.4,1,0.5,1.6,0.2l34.6-14.9l34.6-14.9C385.5,259.3,385.9,258.8,385.9,258.2z"/>
		</g>
		<path id="XMLID_82_" class="st13" d="M348.6,348l-3.4-16.4c0,0,3.2-10.4,3-12.4c-0.2-2-3.8-14.4-3.8-14.4s-2.4-0.3-2.9,1
			c-0.5,1.3,0,7.3,0,7.3s-1.8-1.9-2.3-3c-0.4-0.9-1.2-9.4-1.6-13.5c-0.1-1.2-1.1-2.2-2.4-2.2l0,0c-1.2,0-2.2,0.9-2.4,2.1l-0.6,4.8
			l-4,0.8l-1.9,4.4l-4.3,9.1l2.7,10.3l6,7.9L332,348H348.6z"/>
		<path id="XMLID_81_" class="st13" d="M405.9,323.5l-11.3-12.4c0,0-10.3-3.5-11.8-4.8c-1.5-1.4-9.5-11.5-9.5-11.5s1.2-2.1,2.5-1.7
			s6,4.3,6,4.3s-0.5-2.6-1.1-3.6c-0.5-0.8-6.9-6.5-10-9.2c-0.9-0.8-1.1-2.2-0.4-3.2l0,0c0.7-1,2-1.3,3.1-0.7l4.3,2.3l3-2.8l4.7,1.1
			l9.9,1.9l6.8,8.2l2.9,9.5l10.7,9.3L405.9,323.5z"/>
		
			<rect id="XMLID_80_" x="221.9" y="270.5" transform="matrix(0.942 -0.3355 0.3355 0.942 -84.5942 104.0037)" class="st11" width="73.5" height="52.7"/>
		
			<rect id="XMLID_79_" x="232.8" y="259.5" transform="matrix(0.3355 0.942 -0.942 0.3355 449.0616 -46.0329)" class="st14" width="48.8" height="71.7"/>
		
			<rect id="XMLID_78_" x="218.3" y="266.8" transform="matrix(0.942 -0.3355 0.3355 0.942 -83.5697 102.5714)" class="st11" width="73.5" height="52.7"/>
		<path id="XMLID_77_" class="st15" d="M223.9,264.9l8.7,3.6c0,0,9.9-2.1,13.2-0.8c3.3,1.2,13,7.5,14.1,8.2c1,0.7,2.6,4.2,2.6,4.9
			c0,0.7-2.1,3.9-4.4,4.1c-2.3,0.2-12.7,0.5-12.7,0.5s2.7,2.3,3.1,2.9c0.4,0.6,0.5,2.4,0.2,2.7s-8.4-3.1-10.7-3.9
			c-2.3-0.7-5.7-3.7-6.4-4.4c-0.6-0.6-2.7-3-2.7-3l-9.5-3.9L223.9,264.9z"/>
		<path id="XMLID_76_" class="st15" d="M278.5,335.2l6-7.2c0,0,9.8-2.7,12.1-5.3c2.3-2.6,1.6-6.7,2.2-7.9c0.6-1.1-0.3-8.4,0.2-9
			c1.8-1.9,4.3-3.8,5.8-5.4c2.6-2.9,0.7-4.2-0.6-3.7c-2.1,0.9-16.1,10.3-16.1,10.3s1.3-3.3,1.4-4c0.1-0.8-0.6-2.4-1.1-2.5
			c-0.5-0.1-6,6.6-7.7,8.3c-1.7,1.7-3.4,6-3.7,6.8c-0.3,0.8-1.1,3.9-1.1,3.9l-6.7,7.8L278.5,335.2z"/>
		<g id="XMLID_182_">
			<path id="XMLID_75_" class="st16" d="M329.4,157.6l-54.8,18.3c-3.3,1.1-5,4.6-4,7.9l10.9,32.9c1.1,3.3,4.6,5,7.9,4l54.8-18.3
				c3.3-1.1,5-4.6,4-7.9l-10.9-32.9C336.2,158.3,332.7,156.5,329.4,157.6z"/>
			<path id="XMLID_184_" class="st17" d="M344.8,203.8L290,222.1c-4.1,1.4-8.6-0.9-9.9-5l-10.9-32.9c-1.4-4.1,0.9-8.6,5-9.9
				l54.8-18.3c4.1-1.4,8.6,0.9,9.9,5l10.9,32.9C351.1,198,348.9,202.5,344.8,203.8z M277.5,176.5c-2.4,0.8-3.8,3.4-2.9,5.9
				l10.9,32.9c0.8,2.4,3.4,3.8,5.9,2.9l52.4-17.4c2.4-0.8,3.8-3.4,2.9-5.9L335.8,162c-0.8-2.4-3.4-3.8-5.9-2.9L277.5,176.5z"/>
			<circle id="XMLID_72_" class="st4" cx="277.7" cy="199.7" r="1.9"/>
		</g>
		<polygon id="XMLID_71_" class="st5" points="229.1,136.6 280.8,211 304.1,205.1 297.6,189.4 284.1,185.6 268.3,157.1 349.5,127.5 
			350.7,114.6 340,87.9 		"/>
		<path id="XMLID_70_" class="st18" d="M301.3,196.8l-10.7-4.9c-0.5-0.2-1.2-0.1-1.5,0.4l-0.1,0.1c-0.5,0.7-0.2,1.6,0.5,1.9
			l10.8,4.8c0.6,0.3,1.3,0,1.6-0.6C302.2,197.8,301.9,197.1,301.3,196.8z"/>
		<path id="XMLID_69_" class="st13" d="M278.2,127.5c0,0-3.2,1.3-6.1,1.7c-3,0.4-6.7-1.3-9.2-0.9c-2.5,0.4-8.8,4.8-8.8,4.8l-2.4,5.8
			l-1.5,9.6l10.7,4.4c0,0,2.8,1.2,7.2-1.2c4.5-2.4,12.6-9.4,12.6-9.4l5.4-2.8L278.2,127.5z"/>
		<path id="XMLID_68_" class="st13" d="M285.7,181.7l7.3,2.5c0,0,3.8,4.1,4.5,5.2c0.7,1.1,0,4.5,0,4.5s2.5,2.5,2.4,5
			c-0.1,2.4-4,5.7-8.8,5.8c-4.8,0.1-9.9,0.7-11,0c-1.1-0.7-6.5-11.5-6.5-11.5l-7.6-10.5l14.9-7.2L285.7,181.7z"/>
		<path id="XMLID_67_" class="st19" d="M130.8,333.7c0,0-2.4-25,3.3-32.8c5.7-7.8,36.4-61.8,39-64c2.6-2.2,57,27.9,57,27.9
			s-6.1,14.3-6.7,14.6c-0.6,0.3-41-14.4-41-14.4l-7,22.6l10.4-4l9.4,21.3c0,0-11.1,7-30,16.3C146.4,330.4,130.8,333.7,130.8,333.7z"
			/>
		<path id="XMLID_66_" class="st19" d="M151.8,374.6c-0.3,0.6,27.1,20.8,37.6,17.1c10.6-3.6,51.6-13.8,57.2-17.8
			c5.6-4,36.4-40.6,36.4-40.6l-9.8-11.9l-32.5,29.4l-22.4,6.9l-10.6-24.1C207.9,333.7,162.4,347.4,151.8,374.6z"/>
		<path id="XMLID_65_" class="st20" d="M327.3,342.8l24.2-3.2l9.1,33.1l62-27.2l-21.5-21.3l14.7-17.9l47.6,39.1
			c0,0,14,41.2,13.6,45.7c-0.4,4.5-16.9,39.1-42,50.8c-25.1,11.7-59.1-3.4-63.6-4.5c-4.5-1.1-31.3-35.1-31.8-36.2
			C339.3,400.1,327.3,342.8,327.3,342.8z"/>
		<g id="XMLID_168_">
			<path id="XMLID_64_" class="st21" d="M352.2,111.5c-3.1-16.4-4.5-53.3-7.6-58.5c-4-6.8-13.3-16.4-28-22.2c0,0-62.6-5.4-77,3.4
				c-14.3,8.8-19.6,86.4-19.5,89.9c0,3.5,48.2,64.9,48.2,64.9l15.3-12l-30.9-50.8l68.8-30.2l1.2,8.6l-48,22.2l9.5,17l61.5-21.3
				C350.3,121,353,116.3,352.2,111.5z"/>
			<polygon id="XMLID_63_" class="st22" points="275.7,183.3 269.9,184.5 220.5,125.2 268.4,189.1 			"/>
			<path id="XMLID_62_" class="st22" d="M352.2,114.6c-0.1,0.2-3,4.2-7.5,5.9c-4.5,1.7-57.7,18-57.7,18l-6.3-0.8l3.4,6.1l61.5-21.3
				C349.3,121.3,351.7,118.2,352.2,114.6z"/>
			<path id="XMLID_61_" class="st22" d="M252.7,126.3l9.9-72.8c0,0,28.3-2.9,36.2,0c7.9,2.9,19.7,8.2,19.7,8.2l2.9,34.4L252.7,126.3
				z"/>
			<path id="XMLID_60_" class="st22" d="M244.2,39.5c0,0,15,18.3,15.3,36.4c0.3,18,6.2,10.5,6.2,10.5l-3.1-32.9
				C262.6,53.5,254.9,42.8,244.2,39.5z"/>
			<path id="XMLID_59_" class="st22" d="M319.2,69.3c0,0-3.3-19.3,6.1-28.7c0,0-11.9,5.2-15.4,18.7
				C306.3,72.8,319.2,69.3,319.2,69.3z"/>
		</g>
		<g id="XMLID_163_">
			<path id="XMLID_58_" class="st13" d="M306,55.6c0.5-0.2-0.4,13.2-0.4,13.2l-4.4,6.8c0,0-10.2,7.3-12.1,8.2
				c-1.9,0.9-13,1.1-13,1.1s-3.3,1.6-4.9,0.9c-1.6-0.7-3.2-6.3-3.2-6.3s-6.2-3.3-6-16.1c0.2-12.8,16.4-18.3,16.4-18.3L306,55.6z"/>
			<path id="XMLID_57_" class="st13" d="M266.3,31.9c0,0-3.8-1.5-5.9,1.3c-2.2,2.9,1.5,8.3,1.5,8.3L266.3,31.9z"/>
			<path id="XMLID_56_" class="st13" d="M316.7,56.2c0,0,2.8,0.8,2.8,3.2c0,2.4-5.4,8.1-9.2,7.7C306.5,66.7,316.7,56.2,316.7,56.2z"
				/>
			<path id="XMLID_55_" class="st23" d="M260.2,59.3c0,0-2.1-23.1,5.4-34.1c7.5-11,15.8-12.9,15.8-12.9s7.8-5.1,17.7-1.6
				c9.9,3.5,18.4,12.6,21.6,22.3c3.2,9.7-1.4,23.6-6.7,30.4c-5.3,6.8-12.7,12.1-12.7,12.1s3-9-0.5-9.5c0,0-14.3,10.8-23.8,10.2
				c-9.5-0.6-11.4-2.5-11.4-2.5s11.7-2.8,16.5-6.8c0,0-13.6,4.1-19.8,3.9l4.6-5.8l-3.2,1.5C263.7,66.7,260.5,63.8,260.2,59.3z"/>
		</g>
		<path id="XMLID_54_" class="st24" d="M184.1,350c0,0,1.3,5.2-1,8.8c-2.3,3.6-6.7,4.4-9.6,8.4c-2.9,4.1-8.6,12-16.7,12.2
			c-8,0.2-14.1-8.3-18.8-10c-4.7-1.8-16.7,1.6-20.4-5.9c-3.7-7.5,5.1-20.1-0.7-26.6c-5.8-6.5-5-14.2-1.7-17.9
			c5.4-6,12.5-6.6,20.7-1.9c8.2,4.7,12.9,1.2,16.7-0.1c3.7-1.2,10.1-1.7,12.5-0.6c2.4,1.1,4,5.3,4,5.3L184.1,350z"/>
		<path id="XMLID_53_" class="st25" d="M185.8,283.5l-10.4,4l-6.4,16.2c0,0,10.2-1.4,12.5,0c1.1,0.7,3.1,3.4,4.9,6.2
			c5.7-3.2,8.8-5.2,8.8-5.2L185.8,283.5z"/>
		<path id="XMLID_52_" class="st25" d="M207.9,333.7c0,0-2.8,0.8-7.2,2.5c1.9,4.4,4.7,11.7,4,16.1c-0.9,6.6-9.6,11.6-9.6,11.6
			l23.3-6.1L207.9,333.7z"/>
		<path id="XMLID_51_" class="st15" d="M390.2,400.5c0,0-4.1-11.3,0.1-17.9c4.9-7.7,18.4-12.8,27-9.5c12.5,4.8,11.7,8.9,11.7,8.9
			L390.2,400.5z"/>
		<path id="XMLID_50_" class="st26" d="M435.1,383c0,0-9.1-9.8-22.5-7.6c-13.5,2.2-16.5,5-16.5,5l3.5-0.1l-6.3,4.8
			c0,0-7.4,12.1-7.2,20.7c0.2,8.6,4.3,14.1,4.3,14.1s1.6,8.4,5.6,12c4,3.6,13.6,7.5,20.8,6.7c7.2-0.7,13.5-4.6,13.5-4.6
			s6.1-0.4,10.7-5.9c4.6-5.5,4.3-11.4,4.3-11.4s4.4-5.4,4.6-8.6c0.2-3.2-2.2-11.3-2.2-11.3S444.6,383.5,435.1,383z"/>
		<path id="XMLID_49_" class="st27" d="M360.7,372.7l3.8,15.5l10.3,12.3c0,0,2.8-17.3,16.3-28.4c13.4-11.1,36.9-8.3,40.3-8.2
			c3.4,0.2,16.6,15.5,16.6,15.5l-7.2-19.1l-18.1-14.8L360.7,372.7z"/>
		<path id="XMLID_48_" class="st27" d="M472.9,401.2c0,0-25.4,32.6-48.8,39.1c-20.5,5.7-45.4-0.8-51.3-2.5c7.7,2.6,38.9,15,62.3,4.1
			C453,433.6,466.5,413.7,472.9,401.2z"/>
		<path id="XMLID_47_" class="st18" d="M295.4,194l-11.9-5.5c-0.6-0.3-1.3-0.1-1.7,0.4l-0.1,0.2c-0.5,0.7-0.3,1.8,0.6,2.1l12,5.3
			c0.7,0.3,1.5,0,1.8-0.6C296.4,195.2,296.1,194.3,295.4,194z"/>
		<rect id="XMLID_46_" x="378" y="178.9" class="st11" width="73.5" height="52.7"/>
		<rect id="XMLID_45_" x="378" y="178.9" class="st14" width="71.7" height="48.8"/>
		<rect id="XMLID_44_" x="375.8" y="174.2" class="st11" width="73.5" height="52.7"/>
		
			<rect id="XMLID_43_" x="387.4" y="125.2" transform="matrix(0.9883 -0.1525 0.1525 0.9883 -18.1523 66.4325)" class="st11" width="73.5" height="52.7"/>
		
			<rect id="XMLID_42_" x="398.5" y="114" transform="matrix(0.1525 0.9883 -0.9883 0.1525 506.4698 -290.9945)" class="st14" width="48.8" height="71.7"/>
		
			<rect id="XMLID_41_" x="384.5" y="120.9" transform="matrix(0.9883 -0.1525 0.1525 0.9883 -17.5307 65.9447)" class="st11" width="73.5" height="52.7"/>
		<g id="XMLID_135_">
			<path id="XMLID_40_" class="st28" d="M185,214.4c0.6,1,2,1.4,3,0.7l7.6-4.7l-2.3-3.7l-7.6,4.7C184.7,212,184.4,213.3,185,214.4z"
				/>
			<circle id="XMLID_39_" class="st28" cx="202.7" cy="203.4" r="13.6"/>
			<path id="XMLID_38_" class="st17" d="M190.2,201.1c0.2-1.3,0.5-2.5,1.1-3.7c0.6-1.2,1.3-2.3,2.2-3.2c1.8-1.9,4.2-3.2,6.8-3.7
				c0.3-0.1,0.7-0.1,1-0.1c0.3-0.1,0.7,0,1-0.1c0.2,0,0.3,0,0.5,0l0.5,0c0.3,0,0.7,0,1,0.1c1.3,0.2,2.6,0.5,3.8,1.1
				c1.2,0.6,2.3,1.3,3.2,2.2c0.9,0.9,1.7,1.9,2.3,3.1c-1.5-2.1-3.5-3.8-5.8-4.7c-2.3-1-4.9-1.2-7.3-0.8c-2.4,0.5-4.7,1.7-6.6,3.4
				C192.1,196.4,190.8,198.7,190.2,201.1z"/>
			<circle id="XMLID_37_" class="st29" cx="202.7" cy="203.4" r="11"/>
			<path id="XMLID_36_" class="st30" d="M192.2,206.5c1.3,4.5,5.5,7.8,10.5,7.8c5.5,0,10.1-4.1,10.9-9.5c-1.3-4.5-5.5-7.8-10.5-7.8
				C197.5,197,192.9,201.1,192.2,206.5z"/>
			<g id="XMLID_136_" class="st31">
				<path id="XMLID_35_" class="st17" d="M210.4,198.5c-0.1-0.1-0.2-0.1-0.2-0.1c-0.1,0.1-0.1,0.2-0.1,0.2c0.9,1.4,1.3,3,1.3,4.6
					c0,4.8-3.9,8.7-8.7,8.7c-0.5,0-0.9,0-1.4-0.1c-0.1,0-0.2,0-0.2,0.1c0,0.1,0,0.2,0.1,0.2c0.5,0.1,1,0.1,1.4,0.1c5,0,9-4.1,9-9
					C211.8,201.7,211.3,200,210.4,198.5z"/>
				<path id="XMLID_34_" class="st17" d="M197.6,196.3c0.1-0.1,0.1-0.2,0-0.2c-0.1-0.1-0.2-0.1-0.2,0c-2.3,1.7-3.7,4.4-3.7,7.3
					c0,2.2,0.8,4.4,2.3,6c0,0,0.1,0.1,0.1,0.1c0,0,0.1,0,0.1,0c0.1-0.1,0.1-0.2,0-0.2c-1.4-1.6-2.2-3.7-2.2-5.8
					C194,200.6,195.4,198,197.6,196.3z"/>
				<path id="XMLID_33_" class="st17" d="M202.7,197.8c0.3,0,0.6,0,0.8,0.1c0.1,0,0.2-0.1,0.2-0.1c0-0.1-0.1-0.2-0.1-0.2
					c-0.3,0-0.6-0.1-0.9-0.1c-3.3,0-6,2.7-6,6c0,0.3,0,0.6,0.1,0.9c0,0.1,0.1,0.1,0.2,0.1c0,0,0,0,0,0c0.1,0,0.2-0.1,0.1-0.2
					c0-0.3-0.1-0.5-0.1-0.8C197.1,200.3,199.6,197.8,202.7,197.8z"/>
				<path id="XMLID_32_" class="st17" d="M207.1,207.4c0.1-0.1,0.1-0.2,0-0.2c-0.1-0.1-0.2-0.1-0.2,0c-1.1,1.1-2.6,1.8-4.1,1.8
					c-1.6,0-3.1-0.7-4.1-1.8c-0.1-0.1-0.2-0.1-0.2,0c-0.1,0.1-0.1,0.2,0,0.2c1.1,1.2,2.7,1.9,4.4,1.9
					C204.4,209.3,206,208.7,207.1,207.4z"/>
				<path id="XMLID_31_" class="st17" d="M205.3,198.4c1.9,1,3.1,2.9,3.1,5c0,0.1,0,0.3,0,0.4c0,0.1,0.1,0.2,0.2,0.2c0,0,0,0,0,0
					c0.1,0,0.2-0.1,0.2-0.2c0-0.2,0-0.3,0-0.5c0-2.3-1.2-4.3-3.3-5.3c-0.1,0-0.2,0-0.2,0.1C205.1,198.2,205.2,198.3,205.3,198.4z"/>
				<path id="XMLID_30_" class="st17" d="M202.7,208c1.6,0,3.1-0.8,4-2.2c0-0.1,0-0.2-0.1-0.2c-0.1,0-0.2,0-0.2,0.1
					c-0.8,1.3-2.2,2.1-3.7,2.1c-0.1,0-0.2,0.1-0.2,0.2S202.6,208,202.7,208z"/>
				<path id="XMLID_29_" class="st17" d="M205.7,200.4c0.1,0.1,0.2,0.1,0.2,0c0.1-0.1,0.1-0.2,0-0.2c-0.9-0.9-2-1.4-3.3-1.4
					c-1.6,0-3.2,0.9-4,2.3c0,0.1,0,0.2,0.1,0.2c0,0,0.1,0,0.1,0c0.1,0,0.1,0,0.2-0.1c0.8-1.3,2.2-2.1,3.7-2.1
					C203.9,199.1,204.9,199.6,205.7,200.4z"/>
			</g>
		</g>
		<g id="XMLID_121_">
			<path id="XMLID_28_" class="st28" d="M422.7,79.8c-0.9-0.9-2.3-0.9-3.1,0l-6.3,6.3l3.1,3.1l6.3-6.3
				C423.6,82.1,423.6,80.7,422.7,79.8z"/>
			<circle id="XMLID_27_" class="st28" cx="407.6" cy="95" r="13.6"/>
			<path id="XMLID_26_" class="st17" d="M395.1,92.8c0.2-1.3,0.5-2.5,1.1-3.7c0.6-1.2,1.3-2.3,2.2-3.2c1.8-1.9,4.2-3.2,6.8-3.7
				c0.3-0.1,0.7-0.1,1-0.1c0.3-0.1,0.7,0,1-0.1c0.2,0,0.3,0,0.5,0l0.5,0c0.3,0,0.7,0,1,0.1c1.3,0.2,2.6,0.5,3.8,1.1
				c1.2,0.6,2.3,1.3,3.2,2.2c0.9,0.9,1.7,1.9,2.3,3.1c-1.5-2.1-3.5-3.8-5.8-4.7c-2.3-1-4.9-1.2-7.3-0.8c-2.4,0.5-4.7,1.7-6.6,3.4
				C397,88,395.7,90.3,395.1,92.8z"/>
			<circle id="XMLID_25_" class="st29" cx="407.6" cy="95" r="11"/>
			<path id="XMLID_24_" class="st30" d="M397.1,98.1c1.3,4.5,5.5,7.8,10.5,7.8c5.5,0,10.1-4.1,10.9-9.5c-1.3-4.5-5.5-7.8-10.5-7.8
				C402.4,88.7,397.8,92.8,397.1,98.1z"/>
			<g id="XMLID_122_" class="st31">
				<path id="XMLID_23_" class="st17" d="M415.2,90.2c-0.1-0.1-0.2-0.1-0.2-0.1c-0.1,0.1-0.1,0.2-0.1,0.2c0.9,1.4,1.3,3,1.3,4.6
					c0,4.8-3.9,8.7-8.7,8.7c-0.5,0-0.9,0-1.4-0.1c-0.1,0-0.2,0-0.2,0.1c0,0.1,0,0.2,0.1,0.2c0.5,0.1,1,0.1,1.4,0.1c5,0,9-4.1,9-9
					C416.6,93.3,416.2,91.6,415.2,90.2z"/>
				<path id="XMLID_22_" class="st17" d="M402.5,88c0.1-0.1,0.1-0.2,0-0.2c-0.1-0.1-0.2-0.1-0.2,0c-2.3,1.7-3.7,4.4-3.7,7.3
					c0,2.2,0.8,4.4,2.3,6c0,0,0.1,0.1,0.1,0.1c0,0,0.1,0,0.1,0c0.1-0.1,0.1-0.2,0-0.2c-1.4-1.6-2.2-3.7-2.2-5.8
					C398.9,92.2,400.3,89.6,402.5,88z"/>
				<path id="XMLID_21_" class="st17" d="M407.6,89.4c0.3,0,0.6,0,0.8,0.1c0.1,0,0.2-0.1,0.2-0.1c0-0.1-0.1-0.2-0.1-0.2
					c-0.3,0-0.6-0.1-0.9-0.1c-3.3,0-6,2.7-6,6c0,0.3,0,0.6,0.1,0.9c0,0.1,0.1,0.1,0.2,0.1c0,0,0,0,0,0c0.1,0,0.2-0.1,0.1-0.2
					c0-0.3-0.1-0.5-0.1-0.8C402,91.9,404.5,89.4,407.6,89.4z"/>
				<path id="XMLID_20_" class="st17" d="M412,99.1c0.1-0.1,0.1-0.2,0-0.2c-0.1-0.1-0.2-0.1-0.2,0c-1.1,1.1-2.6,1.8-4.1,1.8
					c-1.6,0-3.1-0.7-4.1-1.8c-0.1-0.1-0.2-0.1-0.2,0c-0.1,0.1-0.1,0.2,0,0.2c1.1,1.2,2.7,1.9,4.4,1.9
					C409.3,101,410.8,100.3,412,99.1z"/>
				<path id="XMLID_19_" class="st17" d="M410.1,90c1.9,1,3.1,2.9,3.1,5c0,0.1,0,0.3,0,0.4c0,0.1,0.1,0.2,0.2,0.2c0,0,0,0,0,0
					c0.1,0,0.2-0.1,0.2-0.2c0-0.2,0-0.3,0-0.5c0-2.3-1.2-4.3-3.3-5.3c-0.1,0-0.2,0-0.2,0.1C410,89.9,410.1,90,410.1,90z"/>
				<path id="XMLID_18_" class="st17" d="M407.6,99.6c1.6,0,3.1-0.8,4-2.2c0-0.1,0-0.2-0.1-0.2c-0.1,0-0.2,0-0.2,0.1
					c-0.8,1.3-2.2,2.1-3.7,2.1c-0.1,0-0.2,0.1-0.2,0.2C407.4,99.6,407.5,99.6,407.6,99.6z"/>
				<path id="XMLID_17_" class="st17" d="M410.6,92c0.1,0.1,0.2,0.1,0.2,0c0.1-0.1,0.1-0.2,0-0.2c-0.9-0.9-2-1.4-3.3-1.4
					c-1.6,0-3.2,0.9-4,2.3c0,0.1,0,0.2,0.1,0.2c0,0,0.1,0,0.1,0c0.1,0,0.1,0,0.2-0.1c0.8-1.3,2.2-2.1,3.7-2.1
					C408.8,90.7,409.8,91.2,410.6,92z"/>
			</g>
		</g>
		<g id="XMLID_107_">
			<path id="XMLID_16_" class="st28" d="M476.3,303.3c1-0.7,1.3-2,0.7-3l-4.8-7.6l-3.7,2.4l4.8,7.6
				C473.9,303.7,475.2,304,476.3,303.3z"/>
			<circle id="XMLID_15_" class="st28" cx="465.1" cy="284.6" r="13.6"/>
			<path id="XMLID_14_" class="st17" d="M452.6,282.4c0.2-1.3,0.5-2.5,1.1-3.7c0.6-1.2,1.3-2.3,2.2-3.2c1.8-1.9,4.2-3.2,6.8-3.7
				c0.3-0.1,0.7-0.1,1-0.1c0.3-0.1,0.7,0,1-0.1c0.2,0,0.3,0,0.5,0l0.5,0c0.3,0,0.7,0,1,0.1c1.3,0.2,2.6,0.5,3.8,1.1
				c1.2,0.6,2.3,1.3,3.2,2.2c0.9,0.9,1.7,1.9,2.3,3.1c-1.5-2.1-3.5-3.8-5.8-4.7c-2.3-1-4.9-1.2-7.3-0.8c-2.4,0.5-4.7,1.7-6.6,3.4
				C454.5,277.6,453.2,279.9,452.6,282.4z"/>
			<circle id="XMLID_13_" class="st29" cx="465.1" cy="284.6" r="11"/>
			<path id="XMLID_12_" class="st30" d="M454.6,287.8c1.3,4.5,5.5,7.8,10.5,7.8c5.5,0,10.1-4.1,10.9-9.5c-1.3-4.5-5.5-7.8-10.5-7.8
				C459.9,278.3,455.3,282.4,454.6,287.8z"/>
			<g id="XMLID_108_" class="st31">
				<path id="XMLID_11_" class="st17" d="M472.7,279.8c-0.1-0.1-0.2-0.1-0.2-0.1c-0.1,0.1-0.1,0.2-0.1,0.2c0.9,1.4,1.3,3,1.3,4.6
					c0,4.8-3.9,8.7-8.7,8.7c-0.5,0-0.9,0-1.4-0.1c-0.1,0-0.2,0-0.2,0.1c0,0.1,0,0.2,0.1,0.2c0.5,0.1,1,0.1,1.4,0.1c5,0,9-4.1,9-9
					C474.1,282.9,473.6,281.2,472.7,279.8z"/>
				<path id="XMLID_10_" class="st17" d="M460,277.6c0.1-0.1,0.1-0.2,0-0.2c-0.1-0.1-0.2-0.1-0.2,0c-2.3,1.7-3.7,4.4-3.7,7.3
					c0,2.2,0.8,4.4,2.3,6c0,0,0.1,0.1,0.1,0.1c0,0,0.1,0,0.1,0c0.1-0.1,0.1-0.2,0-0.2c-1.4-1.6-2.2-3.7-2.2-5.8
					C456.4,281.9,457.8,279.2,460,277.6z"/>
				<path id="XMLID_9_" class="st17" d="M465.1,279c0.3,0,0.6,0,0.8,0.1c0.1,0,0.2-0.1,0.2-0.1c0-0.1-0.1-0.2-0.1-0.2
					c-0.3,0-0.6-0.1-0.9-0.1c-3.3,0-6,2.7-6,6c0,0.3,0,0.6,0.1,0.9c0,0.1,0.1,0.1,0.2,0.1c0,0,0,0,0,0c0.1,0,0.2-0.1,0.1-0.2
					c0-0.3-0.1-0.5-0.1-0.8C459.5,281.5,462,279,465.1,279z"/>
				<path id="XMLID_8_" class="st17" d="M469.5,288.7c0.1-0.1,0.1-0.2,0-0.2c-0.1-0.1-0.2-0.1-0.2,0c-1.1,1.1-2.6,1.8-4.1,1.8
					c-1.6,0-3.1-0.7-4.1-1.8c-0.1-0.1-0.2-0.1-0.2,0c-0.1,0.1-0.1,0.2,0,0.2c1.1,1.2,2.7,1.9,4.4,1.9
					C466.7,290.6,468.3,289.9,469.5,288.7z"/>
				<path id="XMLID_7_" class="st17" d="M467.6,279.6c1.9,1,3.1,2.9,3.1,5c0,0.1,0,0.3,0,0.4c0,0.1,0.1,0.2,0.2,0.2c0,0,0,0,0,0
					c0.1,0,0.2-0.1,0.2-0.2c0-0.2,0-0.3,0-0.5c0-2.3-1.2-4.3-3.3-5.3c-0.1,0-0.2,0-0.2,0.1C467.5,279.5,467.5,279.6,467.6,279.6z"/>
				<path id="XMLID_6_" class="st17" d="M465.1,289.3c1.6,0,3.1-0.8,4-2.2c0-0.1,0-0.2-0.1-0.2c-0.1,0-0.2,0-0.2,0.1
					c-0.8,1.3-2.2,2.1-3.7,2.1c-0.1,0-0.2,0.1-0.2,0.2C464.9,289.2,465,289.3,465.1,289.3z"/>
				<path id="XMLID_5_" class="st17" d="M468.1,281.6c0.1,0.1,0.2,0.1,0.2,0c0.1-0.1,0.1-0.2,0-0.2c-0.9-0.9-2-1.4-3.3-1.4
					c-1.6,0-3.2,0.9-4,2.3c0,0.1,0,0.2,0.1,0.2c0,0,0.1,0,0.1,0c0.1,0,0.1,0,0.2-0.1c0.8-1.3,2.2-2.1,3.7-2.1
					C466.2,280.4,467.3,280.8,468.1,281.6z"/>
			</g>
		</g>
		<path id="XMLID_4_" class="st15" d="M191,333.7c-0.3-0.7-2.1-1-3.9-1.1c-6.7-12.5-23.8-12.9-23.8-12.9s-1.4,5.4,5.9,14.2
			c7.3,8.9,7.2,26.4,7.2,26.4s3.8-2,7.7-6.3c3.2-3.6,6.4-8.8,5.1-15.7C190.3,336.5,191.3,334.5,191,333.7z"/>
		<path id="XMLID_3_" class="st32" d="M355.3,345.3l-1.7-6.1c-0.4-1.6-1.9-2.6-3.5-2.4l-21.3,2.7c-1.9,0.2-3.2,2.1-2.7,4l1.6,6.6
			c0.4,1.6,2,2.7,3.6,2.5l21.4-3.2C354.6,349.1,355.9,347.1,355.3,345.3z"/>
		<path id="XMLID_2_" class="st32" d="M394,320.9l5,4c1.3,1,3.1,0.9,4.2-0.2l15.7-14.7c1.4-1.3,1.4-3.6-0.1-4.8l-5.2-4.4
			c-1.3-1.1-3.2-1-4.4,0.1L393.7,316C392.4,317.4,392.5,319.6,394,320.9z"/>
	</g>
</g>
<g id="DESIGNED_BY_FREEPIK">
</g>
</svg>
