<?xml version="1.0" encoding="utf-8"?>
<!-- Generator: Adobe Illustrator 19.0.0, SVG Export Plug-In . SVG Version: 6.00 Build 0)  -->
<svg version="1.1" id="OBJECTS" xmlns="http://www.w3.org/2000/svg" xmlns:xlink="http://www.w3.org/1999/xlink" x="0px" y="0px"
	 viewBox="0 0 500 500" style="enable-background:new 0 0 500 500;" xml:space="preserve">
<style type="text/css">
	.st0{opacity:0.41;}
	.st1{fill:#FFBA5F;}
	.st2{opacity:0.88;}
	.st3{opacity:0.31;fill:#FFBA5F;}
	.st4{fill:#AF9CDA;}
	.st5{fill:#243762;}
	.st6{fill:#FFFFFF;}
	.st7{fill:#ECF1F7;}
	.st8{fill:#C5D9FF;}
	.st9{opacity:0.33;fill:#AF9CDA;}
	.st10{fill:#F7A9B4;}
	.st11{opacity:0.29;fill:#243762;}
	.st12{opacity:0.35;fill:#ECF1F7;}
</style>
<g>
	<g>
		<g class="st0">
			<g>
				<path class="st1" d="M499.8,307.8c0.5-8.2,0.3-16.4-0.7-24.5c-4.3-38.2-23.9-74.2-52.7-99.5c-10.3-9.1-22-17.2-28.7-29.1
					c-11.3-20.1-10.4-43.3-24.4-63.2c-14-19.9-34.4-35.4-57.4-43.4c-68.6-23.8-164.7,14.9-156,97.6c0,0.3,0.1,0.7,0.1,1.3
					c1.1,17.2-12.3,31.6-29.5,32C87.2,180.4,32.7,229.2,21.1,291c-7.5,39.8,4.8,83.3,33.9,111.5c21.7,21,50.8,32.5,80,40.5
					c58.4,15.9,119.9,19.2,180.2,13.1c56.4-5.7,115.9-21.9,152.3-65.3C486.9,367.6,498,338,499.8,307.8z"/>
			</g>
		</g>
		<g class="st2">
			<g>
				<path class="st1" d="M447.7,311.6c0.4-6.4,0.2-12.8-0.5-19.2c-3.4-29.9-18.7-58.1-41.3-78c-8.1-7.1-17.2-13.5-22.5-22.8
					c-8.8-15.8-8.2-33.9-19.1-49.5c-11-15.6-27-27.8-45-34c-53.7-18.6-129,11.7-122.2,76.5c0,0.2,0.1,0.6,0.1,1
					c0.9,13.5-9.7,24.8-23.1,25.1c-49.6,1.2-92.3,39.4-101.4,87.8c-5.9,31.1,3.7,65.3,26.5,87.3c17,16.4,39.8,25.5,62.7,31.7
					c45.8,12.4,93.9,15.1,141.1,10.3c44.2-4.5,90.8-17.2,119.3-51.1C437.6,358.6,446.3,335.3,447.7,311.6z"/>
			</g>
		</g>
		<circle class="st3" cx="470.7" cy="102.7" r="15.5"/>
		<circle class="st3" cx="130.7" cy="84.8" r="18"/>
		<circle class="st3" cx="23.2" cy="429.6" r="23.2"/>
	</g>
	<g>
		<g>
			<circle class="st4" cx="206.1" cy="164.5" r="82.2"/>
			<path class="st5" d="M263.2,223.7c-0.2,0-0.4-0.1-0.6-0.2c-0.3-0.3-0.3-0.8,0-1.1c15.4-15.4,23.8-35.8,23.8-57.5
				c0-21.7-8.5-42.2-23.8-57.5c-15.4-15.4-35.8-23.8-57.5-23.8s-42.2,8.5-57.5,23.8c-0.3,0.3-0.8,0.3-1.1,0c-0.3-0.3-0.3-0.8,0-1.1
				c15.7-15.7,36.5-24.3,58.7-24.3s43,8.6,58.7,24.3c15.7,15.7,24.3,36.5,24.3,58.7s-8.6,43-24.3,58.7
				C263.6,223.6,263.4,223.7,263.2,223.7z"/>
			<circle class="st6" cx="206.1" cy="164.5" r="62.5"/>
			<path class="st5" d="M206.1,227.8c-34.9,0-63.3-28.4-63.3-63.3s28.4-63.3,63.3-63.3c0.4,0,0.8,0.4,0.8,0.8c0,0.4-0.4,0.8-0.8,0.8
				c-34,0-61.7,27.7-61.7,61.7c0,34,27.7,61.7,61.7,61.7c0.4,0,0.8,0.4,0.8,0.8C206.9,227.5,206.6,227.8,206.1,227.8z"/>
			<path class="st5" d="M222.3,176.5h-17c-3.5,0-6.3-2.8-6.3-6.3v-23.6c0-3,2.5-5.5,5.5-5.5c3,0,5.5,2.5,5.5,5.5v18.9h12.3
				c3,0,5.5,2.5,5.5,5.5C227.8,174,225.4,176.5,222.3,176.5z"/>
		</g>
	</g>
	<g>
		<path class="st5" d="M78.5,193.1l88.5,88.5c17.3,17.3,45.4,17.3,62.7,0l10.6-10.6c4-4,4-10.5,0-14.5l-36.1-36.1
			c-4-4-10.5-4-14.5,0l-18.1,18.1c-1.4,1.4-3.7,1.4-5.1,0l-43.8-43.8c-1.4-1.4-1.4-3.7,0-5l17.8-17.8c4-4,4-10.5,0-14.5l-37.1-37.1
			c-3.9-3.9-10.3-4-14.3-0.1l-10.1,9.7C61.3,147,61,175.5,78.5,193.1z"/>
		<g>
			<path class="st7" d="M81.3,131.6l49.7,49.7l1.7-1.7l7.8-7.8c4-4,4-10.5,0-14.5l-37.1-37.1c-3.9-3.9-10.3-4-14.3-0.1l-10.1,9.7
				L81.3,131.6z"/>
			<path class="st5" d="M131.1,182.4l-50.3-50.3l-2.9-2.3l10.7-10.3c4.3-4.1,11.2-4.1,15.4,0.1l37.1,37.1c4.3,4.3,4.3,11.3,0,15.6
				L131.1,182.4z M80.3,129.8l1.6,1.3l49.2,49.2l9-9c1.8-1.8,2.8-4.2,2.8-6.7c0-2.5-1-4.9-2.8-6.7l-37.1-37.1
				c-3.6-3.6-9.6-3.7-13.2-0.1L80.3,129.8z"/>
		</g>
		<g>
			<path class="st7" d="M182.5,231.1l49.7,49.7l1.7-1.7l7.8-7.8c4-4,4-10.5,0-14.5l-37.1-37.1c-3.9-3.9-10.3-4-14.3-0.1l-10.1,9.7
				L182.5,231.1z"/>
			<path class="st5" d="M232.2,281.9L182,231.7l-2.9-2.3l10.7-10.3c4.3-4.1,11.2-4.1,15.4,0.1l37.1,37.1c2.1,2.1,3.2,4.8,3.2,7.8
				c0,2.9-1.1,5.7-3.2,7.8L232.2,281.9z M181.5,229.2l1.6,1.3l49.2,49.2l9-9c1.8-1.8,2.8-4.2,2.8-6.7c0-2.5-1-4.9-2.8-6.7
				l-37.1-37.1c-3.6-3.6-9.6-3.7-13.2-0.1L181.5,229.2z"/>
		</g>
		<g>
			<line class="st7" x1="85.1" y1="125.7" x2="115.4" y2="156"/>
			<path class="st5" d="M115.4,156.8c-0.2,0-0.4-0.1-0.6-0.2l-30.3-30.3c-0.3-0.3-0.3-0.8,0-1.1c0.3-0.3,0.8-0.3,1.1,0l30.3,30.3
				c0.3,0.3,0.3,0.8,0,1.1C115.8,156.7,115.6,156.8,115.4,156.8z"/>
		</g>
		<g>
			<line class="st7" x1="205.7" y1="246.3" x2="236" y2="276.6"/>
			<path class="st5" d="M236,277.4c-0.2,0-0.4-0.1-0.6-0.2l-30.3-30.3c-0.3-0.3-0.3-0.8,0-1.1c0.3-0.3,0.8-0.3,1.1,0l30.3,30.3
				c0.3,0.3,0.3,0.8,0,1.1C236.4,277.3,236.2,277.4,236,277.4z"/>
		</g>
	</g>
	<g>
		<path class="st5" d="M369,432.3l-116-17.2c-13.1-1.9-22.2-14.2-20.2-27.3l41.6-281.4c1.9-13.1,14.2-22.2,27.3-20.2l116,17.2
			c13.1,1.9,22.2,14.2,20.2,27.3L396.2,412C394.3,425.2,382.1,434.2,369,432.3z"/>
		
			<rect x="262.9" y="121.7" transform="matrix(0.9892 0.1463 -0.1463 0.9892 41.0748 -46.3718)" class="st7" width="145.6" height="268.6"/>
		
			<rect x="281.1" y="123.1" transform="matrix(0.9892 0.1463 -0.1463 0.9892 23.2909 -50.3537)" class="st4" width="145.6" height="20.2"/>
		<path class="st7" d="M313.7,414.8c-0.5,0-0.9,0-1.4-0.1c-2.5-0.4-4.7-1.7-6.2-3.7c-1.5-2-2.1-4.5-1.8-7c0.4-2.5,1.7-4.7,3.7-6.2
			c2-1.5,4.5-2.1,7-1.7c2.5,0.4,4.7,1.7,6.2,3.7c1.5,2,2.1,4.5,1.8,7C322.3,411.4,318.3,414.8,313.7,414.8z M313.6,397.5
			c-1.7,0-3.3,0.5-4.6,1.5c-1.7,1.2-2.8,3.1-3.1,5.1c-0.3,2.1,0.2,4.1,1.5,5.8c1.2,1.7,3.1,2.8,5.1,3.1c4.3,0.6,8.3-2.3,8.9-6.6
			c0.3-2.1-0.2-4.1-1.5-5.8c-1.2-1.7-3.1-2.8-5.1-3.1C314.4,397.6,314,397.5,313.6,397.5z"/>
		<path class="st7" d="M334.5,110c-0.1,0-0.3,0-0.4,0c-0.8-0.1-1.5-0.5-2-1.2c-0.5-0.6-0.7-1.4-0.6-2.2c0.1-0.8,0.5-1.5,1.2-2
			c0.6-0.5,1.4-0.7,2.2-0.6c0.8,0.1,1.5,0.5,2,1.2c0.5,0.6,0.7,1.4,0.6,2.2v0C337.3,108.9,336,110,334.5,110z M334.5,105.5
			c-0.3,0-0.6,0.1-0.9,0.3c-0.3,0.2-0.5,0.6-0.6,1c-0.1,0.4,0,0.8,0.3,1.1c0.2,0.3,0.6,0.5,1,0.6c0.4,0.1,0.8,0,1.1-0.3
			c0.3-0.2,0.5-0.6,0.6-1l0,0c0.1-0.4,0-0.8-0.3-1.1c-0.2-0.3-0.6-0.5-1-0.6C334.6,105.5,334.6,105.5,334.5,105.5z"/>
		<path class="st7" d="M381.3,116.9c-0.1,0-0.3,0-0.4,0l-36.8-5.4c-0.8-0.1-1.5-0.5-2-1.2c-0.5-0.6-0.7-1.4-0.6-2.2
			c0.1-0.8,0.5-1.5,1.2-2c0.6-0.5,1.4-0.7,2.2-0.6l36.8,5.4c0.8,0.1,1.5,0.5,2,1.2c0.5,0.6,0.7,1.4,0.6,2.2c-0.1,0.8-0.5,1.5-1.2,2
			C382.6,116.7,381.9,116.9,381.3,116.9z M344.5,107c-0.7,0-1.3,0.5-1.4,1.2c-0.1,0.4,0,0.8,0.3,1.1c0.2,0.3,0.6,0.5,1,0.6l36.8,5.4
			c0.8,0.1,1.5-0.4,1.6-1.2c0.1-0.4,0-0.8-0.3-1.1c-0.2-0.3-0.6-0.5-1-0.6l-36.8-5.4C344.7,107,344.6,107,344.5,107z"/>
		<path class="st1" d="M388.7,318.2l-100.5-14.9c-1.6-0.2-3.2,0.9-3.4,2.5L281,332c-0.2,1.6,0.9,3.2,2.5,3.4l85.9,12.7l8.9,12.2
			l1.6-10.7l4.1,0.6c1.6,0.2,3.2-0.9,3.4-2.5l3.9-26.1C391.5,320,390.4,318.5,388.7,318.2z"/>
		<path class="st5" d="M369.4,348.9c0,0-0.1,0-0.1,0l-85.9-12.7c-1-0.1-1.9-0.7-2.5-1.5c-0.6-0.8-0.9-1.8-0.7-2.8l3.9-26.1
			c0.3-2.1,2.2-3.5,4.3-3.2l23.2,3.4c0.4,0.1,0.7,0.5,0.7,0.9c-0.1,0.4-0.5,0.7-0.9,0.7l-23.2-3.4c-1.2-0.2-2.3,0.7-2.5,1.9
			l-3.9,26.1c-0.1,0.6,0.1,1.2,0.4,1.6c0.4,0.5,0.9,0.8,1.5,0.9l85.9,12.7c0.4,0.1,0.7,0.5,0.7,0.9
			C370.1,348.6,369.8,348.9,369.4,348.9z"/>
		<path class="st1" d="M404.7,210.2l-100.5-14.9c-1.6-0.2-3.2,0.9-3.4,2.5l-3.9,26.1c-0.2,1.6,0.9,3.2,2.5,3.4l85.9,12.7l8.9,12.2
			l1.6-10.7l4.1,0.6c1.6,0.2,3.2-0.9,3.4-2.5l3.9-26.1C407.5,212,406.3,210.4,404.7,210.2z"/>
		<path class="st5" d="M394.7,254.3l-9.8-13.5l-85.6-12.7c-2.1-0.3-3.5-2.2-3.2-4.3c0.1-0.4,0.5-0.7,0.9-0.7
			c0.4,0.1,0.7,0.5,0.7,0.9c-0.1,0.6,0.1,1.2,0.4,1.6c0.4,0.5,0.9,0.8,1.5,0.9l86.2,12.8l7.9,10.9l1.4-9.5l4.9,0.7
			c0.6,0.1,1.2-0.1,1.6-0.4c0.5-0.4,0.8-0.9,0.9-1.5l2.6-17.3c0.1-0.4,0.5-0.7,0.9-0.7c0.4,0.1,0.7,0.5,0.7,0.9l-2.6,17.3
			c-0.1,1-0.7,1.9-1.5,2.5c-0.8,0.6-1.8,0.9-2.8,0.7l-3.4-0.5L394.7,254.3z"/>
		<path class="st4" d="M277.5,243.8L378,258.7c1.6,0.2,2.8,1.8,2.5,3.4l-3.9,26.1c-0.2,1.6-1.8,2.8-3.4,2.5l-85.9-12.7l-12,9.1
			l1.6-10.7l-4.1-0.6c-1.6-0.2-2.8-1.8-2.5-3.4l3.9-26.1C274.3,244.7,275.9,243.6,277.5,243.8z"/>
		<path class="st5" d="M373.7,291.5c-0.2,0-0.4,0-0.6,0l-53.6-7.9c-0.4-0.1-0.7-0.5-0.7-0.9c0.1-0.4,0.5-0.7,0.9-0.7l53.6,7.9
			c0.6,0.1,1.2-0.1,1.6-0.4c0.5-0.4,0.8-0.9,0.9-1.5l3.9-26.1c0.2-1.2-0.7-2.3-1.9-2.5c-0.4-0.1-0.7-0.5-0.7-0.9
			c0.1-0.4,0.5-0.7,0.9-0.7c2.1,0.3,3.5,2.2,3.2,4.3l-3.9,26.1c-0.1,1-0.7,1.9-1.5,2.5C375.3,291.2,374.5,291.5,373.7,291.5z"/>
		
			<rect x="245.1" y="364.3" transform="matrix(0.9892 0.1463 -0.1463 0.9892 58.5325 -42.463)" class="st6" width="145.6" height="24.7"/>
		<circle class="st8" cx="260.3" cy="367.9" r="8.8"/>
		<path class="st9" d="M375.2,392.9c-0.4,0-0.8,0-1.1-0.1L280.7,379c-2.1-0.3-3.9-1.4-5.1-3.1c-1.2-1.7-1.8-3.7-1.5-5.8
			c0.6-4.3,4.6-7.2,8.9-6.6l93.4,13.8c4.3,0.6,7.2,4.6,6.6,8.9C382.3,390.1,379,392.9,375.2,392.9z M374.3,391.3
			c3.4,0.5,6.6-1.9,7.1-5.3c0.2-1.6-0.2-3.3-1.2-4.6c-1-1.3-2.4-2.2-4.1-2.5l-93.4-13.8c-3.4-0.5-6.6,1.9-7.1,5.3
			c-0.2,1.6,0.2,3.3,1.2,4.6c1,1.3,2.4,2.2,4.1,2.5L374.3,391.3z"/>
		<path class="st6" d="M292.3,126.9c-0.1,0-0.3,0-0.5,0c-1.7-0.2-2.8-1.8-2.6-3.5c0.1-0.8,0.5-1.5,1.2-2c0.7-0.5,1.5-0.7,2.3-0.6
			c1.7,0.2,2.8,1.8,2.6,3.5l0,0C295.1,125.8,293.8,126.9,292.3,126.9z M292.3,122.3c-0.3,0-0.6,0.1-0.9,0.3c-0.3,0.2-0.5,0.6-0.6,1
			c-0.1,0.4,0,0.8,0.3,1.1c0.2,0.3,0.6,0.5,1,0.6c0.8,0.1,1.6-0.4,1.7-1.3l0,0c0.1-0.4,0-0.8-0.3-1.1c-0.2-0.3-0.6-0.5-1-0.6
			C292.5,122.3,292.4,122.3,292.3,122.3z"/>
		<path class="st6" d="M300.8,128.1c-0.2,0-0.3,0-0.5,0c-1.7-0.2-2.8-1.8-2.6-3.5c0.2-1.7,1.8-2.8,3.5-2.6c0.8,0.1,1.5,0.5,2,1.2
			c0.5,0.7,0.7,1.5,0.6,2.3c-0.1,0.8-0.5,1.5-1.2,2C302.1,127.9,301.5,128.1,300.8,128.1z M300.8,123.5c-0.7,0-1.4,0.5-1.5,1.3
			c-0.1,0.4,0,0.8,0.3,1.1c0.2,0.3,0.6,0.5,1,0.6c0.4,0.1,0.8,0,1.1-0.3c0.3-0.2,0.5-0.6,0.6-1l0,0c0.1-0.4,0-0.8-0.3-1.1
			c-0.2-0.3-0.6-0.5-1-0.6C301,123.5,300.9,123.5,300.8,123.5z"/>
		<path class="st6" d="M309.2,129.3c-0.1,0-0.3,0-0.5,0c-1.7-0.2-2.8-1.8-2.6-3.5c0.2-1.7,1.8-2.8,3.5-2.6c1.7,0.2,2.8,1.8,2.6,3.5
			C312,128.2,310.7,129.3,309.2,129.3z M309.2,124.8c-0.3,0-0.6,0.1-0.9,0.3c-0.3,0.2-0.5,0.6-0.6,1c-0.1,0.4,0,0.8,0.3,1.1
			c0.2,0.3,0.6,0.5,1,0.6c0.8,0.1,1.6-0.4,1.7-1.3c0.1-0.8-0.4-1.6-1.3-1.7C309.3,124.8,309.2,124.8,309.2,124.8z"/>
		<path class="st5" d="M426.4,154.8c0,0-0.1,0-0.1,0L293,135.1c-0.4-0.1-0.7-0.5-0.7-0.9c0.1-0.4,0.5-0.7,0.9-0.7l133.4,19.7
			c0.4,0.1,0.7,0.5,0.7,0.9C427.2,154.6,426.8,154.8,426.4,154.8z"/>
		<path class="st6" d="M370.8,324.2c0,0-0.1,0-0.1,0l-71.2-10.5c-0.4-0.1-0.7-0.5-0.7-0.9c0.1-0.4,0.5-0.7,0.9-0.7l71.2,10.5
			c0.4,0.1,0.7,0.5,0.7,0.9C371.6,324,371.2,324.2,370.8,324.2z"/>
		<path class="st6" d="M328.7,326.7c0,0-0.1,0-0.1,0l-30.3-4.5c-0.4-0.1-0.7-0.5-0.7-0.9c0.1-0.4,0.5-0.7,0.9-0.7l30.3,4.5
			c0.4,0.1,0.7,0.5,0.7,0.9C329.4,326.4,329.1,326.7,328.7,326.7z"/>
		<path class="st6" d="M318.5,333.3c0,0-0.1,0-0.1,0l-21.3-3.1c-0.4-0.1-0.7-0.5-0.7-0.9c0.1-0.4,0.5-0.7,0.9-0.7l21.3,3.1
			c0.4,0.1,0.7,0.5,0.7,0.9C319.2,333,318.9,333.3,318.5,333.3z"/>
		<path class="st6" d="M369.6,332.7c0,0-0.1,0-0.1,0l-31.3-4.6c-0.4-0.1-0.7-0.5-0.7-0.9c0.1-0.4,0.5-0.7,0.9-0.7l31.3,4.6
			c0.4,0.1,0.7,0.5,0.7,0.9C370.3,332.4,370,332.7,369.6,332.7z"/>
		<g>
			<path class="st6" d="M362.2,265.2c0,0-0.1,0-0.1,0l-71.2-10.5c-0.4-0.1-0.7-0.5-0.7-0.9c0.1-0.4,0.5-0.7,0.9-0.7l71.2,10.5
				c0.4,0.1,0.7,0.5,0.7,0.9C362.9,264.9,362.5,265.2,362.2,265.2z"/>
			<path class="st6" d="M320,267.6c0,0-0.1,0-0.1,0l-30.3-4.5c-0.4-0.1-0.7-0.5-0.7-0.9c0.1-0.4,0.5-0.7,0.9-0.7l30.3,4.5
				c0.4,0.1,0.7,0.5,0.7,0.9C320.8,267.4,320.4,267.6,320,267.6z"/>
			<path class="st6" d="M351.5,280.4c0,0-0.1,0-0.1,0l-61.4-9.5c-0.4-0.1-0.7-0.5-0.7-0.9c0.1-0.4,0.5-0.7,0.9-0.7l61.4,9.5
				c0.4,0.1,0.7,0.5,0.7,0.9C352.2,280.1,351.9,280.4,351.5,280.4z"/>
			<path class="st6" d="M360.9,273.7c0,0-0.1,0-0.1,0l-31.3-4.6c-0.4-0.1-0.7-0.5-0.7-0.9c0.1-0.4,0.5-0.7,0.9-0.7l31.3,4.6
				c0.4,0.1,0.7,0.5,0.7,0.9C361.6,273.4,361.3,273.7,360.9,273.7z"/>
		</g>
		<path class="st4" d="M290.4,145.8l100.5,14.9c1.6,0.2,2.8,1.8,2.5,3.4l-3.9,26.1c-0.2,1.6-1.8,2.8-3.4,2.5l-85.9-12.7l-12,9.1
			l1.6-10.7l-4.1-0.6c-1.6-0.2-2.8-1.8-2.5-3.4l3.9-26.1C287.3,146.7,288.8,145.5,290.4,145.8z"/>
		<path class="st5" d="M389.6,190.9c0,0-0.1,0-0.1,0c-0.4-0.1-0.7-0.5-0.7-0.9l3.9-26.1c0.1-0.6-0.1-1.2-0.4-1.6
			c-0.4-0.5-0.9-0.8-1.5-0.9l-62.4-9.2c-0.4-0.1-0.7-0.5-0.7-0.9c0.1-0.4,0.5-0.7,0.9-0.7l62.4,9.2c1,0.1,1.9,0.7,2.5,1.5
			c0.6,0.8,0.9,1.8,0.7,2.8l-3.9,26.1C390.3,190.6,390,190.9,389.6,190.9z"/>
		<g>
			<path class="st6" d="M375.1,167.2c0,0-0.1,0-0.1,0l-71.2-10.5c-0.4-0.1-0.7-0.5-0.7-0.9c0.1-0.4,0.5-0.7,0.9-0.7l71.2,10.5
				c0.4,0.1,0.7,0.5,0.7,0.9C375.8,166.9,375.4,167.2,375.1,167.2z"/>
			<path class="st6" d="M332.9,169.6c0,0-0.1,0-0.1,0l-30.3-4.5c-0.4-0.1-0.7-0.5-0.7-0.9c0.1-0.4,0.5-0.7,0.9-0.7l30.3,4.5
				c0.4,0.1,0.7,0.5,0.7,0.9C333.7,169.3,333.3,169.6,332.9,169.6z"/>
			<path class="st6" d="M364.4,182.4c0,0-0.1,0-0.1,0l-61.4-9.5c-0.4-0.1-0.7-0.5-0.7-0.9c0.1-0.4,0.5-0.7,0.9-0.7l61.4,9.5
				c0.4,0.1,0.7,0.5,0.7,0.9C365.1,182.1,364.8,182.4,364.4,182.4z"/>
			<path class="st6" d="M373.8,175.7c0,0-0.1,0-0.1,0l-31.3-4.6c-0.4-0.1-0.7-0.5-0.7-0.9c0.1-0.4,0.5-0.7,0.9-0.7l31.3,4.6
				c0.4,0.1,0.7,0.5,0.7,0.9C374.5,175.4,374.2,175.7,373.8,175.7z"/>
		</g>
		<path class="st6" d="M386.9,217.2c0,0-0.1,0-0.1,0l-71.2-10.5c-0.4-0.1-0.7-0.5-0.7-0.9c0.1-0.4,0.5-0.7,0.9-0.7l71.2,10.5
			c0.4,0.1,0.7,0.5,0.7,0.9C387.6,216.9,387.3,217.2,386.9,217.2z"/>
		<path class="st6" d="M344.8,219.6c0,0-0.1,0-0.1,0l-30.3-4.5c-0.4-0.1-0.7-0.5-0.7-0.9c0.1-0.4,0.5-0.7,0.9-0.7l30.3,4.5
			c0.4,0.1,0.7,0.5,0.7,0.9C345.5,219.4,345.1,219.6,344.8,219.6z"/>
		<path class="st6" d="M334.6,226.3c0,0-0.1,0-0.1,0l-21.3-3.1c-0.4-0.1-0.7-0.5-0.7-0.9c0.1-0.4,0.5-0.7,0.9-0.7l21.3,3.1
			c0.4,0.1,0.7,0.5,0.7,0.9C335.3,226,334.9,226.3,334.6,226.3z"/>
		<path class="st6" d="M385.6,225.7c0,0-0.1,0-0.1,0l-31.3-4.6c-0.4-0.1-0.7-0.5-0.7-0.9c0.1-0.4,0.5-0.7,0.9-0.7l31.3,4.6
			c0.4,0.1,0.7,0.5,0.7,0.9C386.4,225.4,386,225.7,385.6,225.7z"/>
	</g>
	<g>
		<g>
			<path class="st10" d="M242.2,408.2L81,426.3c-3.1,0.3-5.9-1.9-6.2-5L63.1,318.1c0-0.2,0.1-0.3,0.3-0.3l171.8-19.4
				c0.2,0,0.3,0.1,0.3,0.3L247.1,402C247.5,405,245.3,407.8,242.2,408.2z"/>
			<path class="st5" d="M80.4,427.1c-3.2,0-6-2.4-6.4-5.7L62.4,318.2c-0.1-0.6,0.4-1.1,1-1.2l171.8-19.4c0.6-0.1,1.1,0.4,1.2,1
				l11.6,103.3c0.2,1.7-0.3,3.4-1.4,4.7c-1.1,1.3-2.6,2.2-4.3,2.4L81.1,427.1C80.9,427.1,80.6,427.1,80.4,427.1z M64,318.5
				l11.6,102.8c0.3,2.7,2.7,4.6,5.4,4.3l161.2-18.2l0.1,0.8l-0.1-0.8c1.3-0.1,2.4-0.8,3.2-1.8c0.8-1,1.2-2.3,1-3.5l-11.6-102.8
				L64,318.5z"/>
		</g>
		<path class="st11" d="M234.7,408.2L88.9,426.3c-3.1,0.3,45.2-61.6,44.8-64.7l-70.6-43.6c0-0.2,0.1-0.3,0.3-0.3l171.8-19.4
			c0.2,0,0.3,0.1,0.3,0.3l-58.8,58.2C177.1,359.9,237.7,407.8,234.7,408.2z"/>
		<g>
			<path class="st10" d="M63.4,317.8l71-70.3c4.2-4.2,10.8-5,15.9-1.8l84.4,52.4c0.1,0.1,0.1,0.3-0.1,0.3L63.1,317.8"/>
			<path class="st5" d="M63.2,318.6l-0.1-1.2l-0.2-0.2L63,317l0,0l0,0l70.8-70.1c4.5-4.5,11.4-5.3,16.8-1.9l84.4,52.4
				c0.3,0.2,0.5,0.6,0.4,1c-0.1,0.4-0.4,0.7-0.8,0.7L63.2,318.6z M143.5,244.5c-3.1,0-6.2,1.2-8.5,3.5l-69.4,68.7l167.3-18.8
				l-82.9-51.5C147.9,245.1,145.7,244.5,143.5,244.5z"/>
		</g>
		<path class="st11" d="M63.4,317.8l71-70.3c4.2-4.2,10.8-5,15.9-1.8l84.4,52.4c0.1,0.1,0.1,0.3-0.1,0.3L63.1,317.8"/>
		<g>
			<path class="st10" d="M142.3,350.8l-53.4,74.3l145.8-16.4l-68.6-60.5C158.9,341.8,147.9,343.1,142.3,350.8z"/>
			<path class="st5" d="M87.2,426.1l54.4-75.7l0.6,0.5l-0.6-0.5c2.8-3.9,7.1-6.4,11.8-6.9c4.7-0.5,9.5,1,13.1,4.1l69.9,61.7
				L87.2,426.1z M155.4,344.9c-0.6,0-1.1,0-1.7,0.1c-4.3,0.5-8.2,2.8-10.7,6.3l-52.4,72.9l142.2-16l-67.3-59.4
				C162.7,346.3,159.1,344.9,155.4,344.9z"/>
		</g>
		<g>
			<path class="st6" d="M72.1,266.9l112.3-12.6c7.4-0.8,13.9,3.7,14.6,10.1l7.2,64L175,357l-41.3,4.6L93,336.2l-7-62.1L72.1,266.9z"
				/>
			<path class="st5" d="M133.5,362.5l-41.3-25.8l-7-62l-10.7-8.8l109.7-12.4c3.7-0.4,7.4,0.5,10.3,2.5c3,2,4.8,5,5.2,8.3l7.3,64.4
				l-31.7,29.1L133.5,362.5z M93.7,335.7l40.2,25.1l40.7-4.6l30.7-28.3l-7.2-63.6c-0.3-2.9-1.9-5.4-4.5-7.2
				c-2.6-1.8-5.9-2.6-9.3-2.2L74.7,267.4l12,6.3L93.7,335.7z"/>
		</g>
		<path class="st11" d="M142.3,344.4l-53.4,80.7l145.8-16.4l-68.6-67C158.9,335.4,147.9,336.7,142.3,344.4z"/>
		<g>
			<path class="st10" d="M142.3,350.8l-53.4,74.3l145.8-16.4l-68.6-60.5C158.9,341.8,147.9,343.1,142.3,350.8z"/>
			<path class="st5" d="M87.2,426.1l54.4-75.7l0.6,0.5l-0.6-0.5c2.8-3.9,7.1-6.4,11.8-6.9c4.7-0.5,9.5,1,13.1,4.1l69.9,61.7
				L87.2,426.1z M155.4,344.9c-0.6,0-1.1,0-1.7,0.1c-4.3,0.5-8.2,2.8-10.7,6.3l-52.4,72.9l142.2-16l-67.3-59.4
				C162.7,346.3,159.1,344.9,155.4,344.9z"/>
		</g>
		<path class="st12" d="M147.5,367.3l-39.2,54.6l107-12.1l-50.4-44.5C159.7,360.7,151.6,361.6,147.5,367.3z"/>
		<g>
			<line class="st10" x1="63.5" y1="317.9" x2="133.7" y2="361.7"/>
			
				<rect x="57.2" y="339" transform="matrix(0.8487 0.5289 -0.5289 0.8487 194.611 -0.7349)" class="st5" width="82.8" height="1.6"/>
		</g>
		<g>
			<line class="st10" x1="235.5" y1="298.5" x2="176.7" y2="356.8"/>
			
				<rect x="205.3" y="286.3" transform="matrix(0.7047 0.7096 -0.7096 0.7047 293.3715 -49.4759)" class="st5" width="1.6" height="82.8"/>
		</g>
		<g>
			<path class="st7" d="M89.1,302.7l-19.6,2.2l-3.1-28c-0.6-5.2,3.1-9.8,8.3-10.4l0.9-0.1c5.2-0.6,9.8,3.1,10.4,8.3L89.1,302.7z"/>
			<path class="st5" d="M68.8,305.8l-3.2-28.7c-0.3-2.7,0.5-5.4,2.2-7.5c1.7-2.1,4.1-3.5,6.8-3.8l0.9-0.1c2.7-0.3,5.4,0.5,7.5,2.2
				c2.1,1.7,3.5,4.1,3.8,6.8l3.2,28.7L68.8,305.8z M76.6,267.2c-0.3,0-0.7,0-1,0.1l-0.9,0.1c-2.3,0.3-4.3,1.4-5.8,3.2
				c-1.4,1.8-2.1,4.1-1.8,6.3l3.1,27.2l18-2l-3.1-27.2c-0.3-2.3-1.4-4.3-3.2-5.8C80.4,267.8,78.5,267.2,76.6,267.2z"/>
		</g>
		<path class="st5" d="M102.4,288.2c-0.4,0-0.7-0.3-0.8-0.7c0-0.4,0.3-0.8,0.7-0.9l81.3-9.2c0.4-0.1,0.8,0.3,0.9,0.7
			c0,0.4-0.3,0.8-0.7,0.9L102.4,288.2C102.4,288.2,102.4,288.2,102.4,288.2z"/>
		<path class="st5" d="M105.5,315.8c-0.4,0-0.7-0.3-0.8-0.7c0-0.4,0.3-0.8,0.7-0.9l81.3-9.2c0.4-0.1,0.8,0.3,0.9,0.7
			c0,0.4-0.3,0.8-0.7,0.9L105.5,315.8C105.6,315.8,105.5,315.8,105.5,315.8z"/>
		<path class="st5" d="M103.9,301.8c-0.4,0-0.7-0.3-0.8-0.7c0-0.4,0.3-0.8,0.7-0.9l35.2-4c0.4,0,0.8,0.3,0.9,0.7
			c0,0.4-0.3,0.8-0.7,0.9L103.9,301.8C104,301.8,104,301.8,103.9,301.8z"/>
		<path class="st5" d="M148.3,296.8c-0.4,0-0.7-0.3-0.8-0.7c0-0.4,0.3-0.8,0.7-0.9l37-4.2c0.4,0,0.8,0.3,0.9,0.7
			c0,0.4-0.3,0.8-0.7,0.9L148.3,296.8C148.3,296.8,148.3,296.8,148.3,296.8z"/>
		<path class="st5" d="M107.3,331.5c-0.4,0-0.7-0.3-0.8-0.7c0-0.4,0.3-0.8,0.7-0.9l35.2-4c0.4,0,0.8,0.3,0.9,0.7
			c0,0.4-0.3,0.8-0.7,0.9L107.3,331.5C107.3,331.5,107.3,331.5,107.3,331.5z"/>
	</g>
</g>
</svg>
