<?xml version="1.0" encoding="utf-8"?>
<!-- Generator: Adobe Illustrator 19.0.0, SVG Export Plug-In . SVG Version: 6.00 Build 0)  -->
<svg version="1.1" xmlns="http://www.w3.org/2000/svg" xmlns:xlink="http://www.w3.org/1999/xlink" x="0px" y="0px"
	 viewBox="0 0 500 396.8" style="enable-background:new 0 0 500 396.8;" xml:space="preserve">
<style type="text/css">
	.st0{fill:#C6FF00;}
	.st1{fill:#FFC580;}
	.st2{opacity:0.8;fill:#FFFFFF;}
	.st3{fill:#FFFFFF;stroke:#263238;stroke-linecap:round;stroke-linejoin:round;stroke-miterlimit:10;}
	.st4{fill:none;stroke:#263238;stroke-width:0.75;stroke-linecap:round;stroke-linejoin:round;stroke-miterlimit:10;}
	.st5{fill:#263238;stroke:#263238;stroke-linecap:round;stroke-linejoin:round;stroke-miterlimit:10;}
	.st6{fill:none;stroke:#FFFFFF;stroke-width:0.75;stroke-linecap:round;stroke-linejoin:round;stroke-miterlimit:10;}
	.st7{fill:#263238;}
	.st8{fill:#FF9F0C;stroke:#263238;stroke-miterlimit:10;}
	.st9{fill:#FFFFFF;stroke:#263238;stroke-width:0.75;stroke-linecap:round;stroke-linejoin:round;stroke-miterlimit:10;}
	.st10{fill:#FF9F0C;stroke:#263238;stroke-linecap:round;stroke-linejoin:round;stroke-miterlimit:10;}
	.st11{fill:none;stroke:#263238;stroke-linecap:round;stroke-linejoin:round;stroke-miterlimit:10;}
	.st12{fill:none;stroke:#FFFFFF;stroke-linecap:round;stroke-linejoin:round;stroke-miterlimit:10;}
	.st13{fill:none;stroke:#FFFFFF;stroke-width:0.5;stroke-linecap:round;stroke-linejoin:round;stroke-miterlimit:10;}
	.st14{fill:none;stroke:#263238;stroke-miterlimit:10;}
</style>
<g id="Background_Simple">
</g>
<g id="Clouds">
</g>
<g id="Buildings">
</g>
<g id="Character">
	<g>
		<g>
			<path class="st0" d="M444,287.3c0,0,44.3-53.5,32.3-146.7S403.1,20.6,364,20.3c-39.2-0.3-76.6,42.7-129.4,51.4
				c-52.8,8.7-126-16-185.6,4.9c-59.6,20.8-64.7,146.2-16.2,195.5c48.5,49.4,151.5,47.4,212.8,35C307,294.7,398.9,344.2,444,287.3z"
				/>
			<path class="st1" d="M444,287.3c0,0,44.3-53.5,32.3-146.7S403.1,20.6,364,20.3c-39.2-0.3-76.6,42.7-129.4,51.4
				c-52.8,8.7-126-16-185.6,4.9c-59.6,20.8-64.7,146.2-16.2,195.5c48.5,49.4,151.5,47.4,212.8,35C307,294.7,398.9,344.2,444,287.3z"
				/>
		</g>
		<g>
			<path class="st0" d="M270.5,38.3c-5.7-3.1-8.3-0.5-10.4-3.1c-2.1-2.6,5.7-9.3-9.9-16.1c0,0-1-14.5-22.3-15
				c-21.3-0.5-15.6,14.5-21.3,18.2c-5.7,3.6-7.3-2.1-13,1.6c-5.7,3.6-3.1,10.9-7.8,11.9c-4.7,1-10.9-4.7-16.6-1
				c-5.7,3.6-5.7,6.7-8.3,6.7c-2.6,0-7.8-2.1-10.9,0c-3.1,2.1-6.7,4.7-6.7,4.7h131.3C274.7,46.1,276.2,41.4,270.5,38.3z"/>
			<path class="st0" d="M270.5,38.3c-5.7-3.1-8.3-0.5-10.4-3.1c-2.1-2.6,5.7-9.3-9.9-16.1c0,0-1-14.5-22.3-15
				c-21.3-0.5-15.6,14.5-21.3,18.2c-5.7,3.6-7.3-2.1-13,1.6c-5.7,3.6-3.1,10.9-7.8,11.9c-4.7,1-10.9-4.7-16.6-1
				c-5.7,3.6-5.7,6.7-8.3,6.7c-2.6,0-7.8-2.1-10.9,0c-3.1,2.1-6.7,4.7-6.7,4.7h131.3C274.7,46.1,276.2,41.4,270.5,38.3z"/>
			<path class="st1" d="M270.5,38.3c-5.7-3.1-8.3-0.5-10.4-3.1c-2.1-2.6,5.7-9.3-9.9-16.1c0,0-1-14.5-22.3-15
				c-21.3-0.5-15.6,14.5-21.3,18.2c-5.7,3.6-7.3-2.1-13,1.6c-5.7,3.6-3.1,10.9-7.8,11.9c-4.7,1-10.9-4.7-16.6-1
				c-5.7,3.6-5.7,6.7-8.3,6.7c-2.6,0-7.8-2.1-10.9,0c-3.1,2.1-6.7,4.7-6.7,4.7h131.3C274.7,46.1,276.2,41.4,270.5,38.3z"/>
		</g>
		<path class="st2" d="M429.8,94.1c-3.2-1.7-4.6-0.3-5.7-1.7c-1.1-1.4,3.2-5.2-5.4-8.9c0,0-0.6-8-12.3-8.3c-11.8-0.3-8.6,8-11.8,10
			c-3.2,2-4-1.1-7.2,0.9c-3.2,2-1.7,6-4.3,6.6c-2.6,0.6-6-2.6-9.2-0.6c-3.2,2-3.2,3.7-4.6,3.7c-1.4,0-4.3-1.1-6,0
			c-1.7,1.1-3.7,2.6-3.7,2.6h72.5C432.1,98.4,432.9,95.8,429.8,94.1z"/>
		<path class="st2" d="M89.7,159.3c-3.2-1.7-4.6-0.3-5.7-1.7c-1.1-1.4,3.2-5.2-5.4-8.9c0,0-0.6-8-12.3-8.3c-11.8-0.3-8.6,8-11.8,10
			c-3.2,2-4-1.1-7.2,0.9s-1.7,6-4.3,6.6c-2.6,0.6-6-2.6-9.2-0.6s-3.2,3.7-4.6,3.7c-1.4,0-4.3-1.1-6,0c-1.7,1.1-3.7,2.6-3.7,2.6H92
			C92,163.6,92.9,161,89.7,159.3z"/>
		<g>
			<g>
				<polygon class="st3" points="250.6,264.1 248.6,65.6 287.8,65.2 286.7,270.7 				"/>
				<g>
					<line class="st4" x1="253.4" y1="69.7" x2="253.7" y2="150.8"/>
					<line class="st4" x1="259.1" y1="70" x2="259.1" y2="168.7"/>
					<line class="st4" x1="265.5" y1="69.7" x2="266.1" y2="169.9"/>
					<line class="st4" x1="273.5" y1="70.7" x2="273.5" y2="168.7"/>
					<line class="st4" x1="280.8" y1="71" x2="280.8" y2="241.8"/>
					<line class="st4" x1="250.5" y1="78.6" x2="285" y2="79"/>
					<line class="st4" x1="250.8" y1="91.4" x2="284.6" y2="92.4"/>
					<line class="st4" x1="251.4" y1="104.5" x2="284" y2="106.1"/>
					<line class="st4" x1="251.1" y1="117.6" x2="284.6" y2="119.8"/>
					<line class="st4" x1="251.4" y1="130.3" x2="283.7" y2="133.9"/>
				</g>
				<polygon class="st5" points="287.8,65.2 318.1,65.6 315.8,250.3 286.7,270.7 				"/>
				<g>
					<line class="st6" x1="315" y1="70" x2="315" y2="168.7"/>
					<line class="st6" x1="308.6" y1="69.7" x2="308.7" y2="182.6"/>
					<line class="st6" x1="300.7" y1="70.7" x2="300.8" y2="186.7"/>
					<line class="st6" x1="293.3" y1="71" x2="293.3" y2="241.8"/>
					<line class="st6" x1="317.4" y1="78.6" x2="289.2" y2="79"/>
					<line class="st6" x1="317.4" y1="92.1" x2="289.5" y2="92.4"/>
					<line class="st6" x1="318.1" y1="104.5" x2="290.1" y2="106.1"/>
					<line class="st6" x1="317" y1="118.4" x2="289.5" y2="119.8"/>
					<line class="st6" x1="317" y1="131.1" x2="290.4" y2="133.9"/>
					<line class="st6" x1="316.2" y1="144.3" x2="289.7" y2="147"/>
					<line class="st6" x1="316.2" y1="155.9" x2="288.9" y2="160.2"/>
					<line class="st6" x1="315" y1="168.7" x2="288.2" y2="173.3"/>
				</g>
				<rect x="283.2" class="st3" width="2.7" height="41.9"/>
				<polygon class="st3" points="267.6,49.2 267.5,39.2 300.3,39.7 300.6,49.9 				"/>
				<polygon class="st5" points="285.6,49.5 285.6,39.7 300.3,39.7 300.6,49.9 				"/>
				<polygon class="st3" points="248.6,65.6 256.7,56.4 287.8,56 287.8,65.2 				"/>
				<polygon class="st5" points="287.8,56 311.2,56.7 318.1,65.6 287.8,65.2 				"/>
				<polygon class="st3" points="256.7,56.4 256.7,49.4 287.8,49.2 287.8,56 				"/>
				<polygon class="st5" points="287.8,49.2 311.3,50 311.2,56.7 287.8,56 				"/>
			</g>
			<polygon class="st7" points="405.9,239.8 429.2,245.1 431,199 449.1,190.8 474.2,196.6 473,271.3 486.4,273.7 485.2,396.8 
				419.3,375.8 366.2,360 			"/>
			<g>
				<polygon class="st3" points="313.6,134.4 381,140.1 403.1,134 334.9,128.7 				"/>
				<polygon class="st5" points="381,140.1 379.1,252 401.2,241.7 403.1,134 				"/>
				<polygon class="st3" points="313.6,134.4 313.2,237.9 379.1,252 381,140.1 				"/>
				<polygon class="st8" points="370.1,166.1 319.9,161.2 319.9,140.4 370.1,145.3 				"/>
				<g>
					<path class="st7" d="M327.2,156.5l-1.2-10l1.3,0.1l0.7,7.1l0.9-6.9l1.2,0.1l0.9,7.1l0.6-7l1.4,0.1L332,157l-1.5-0.2l-0.9-6.7
						l-0.9,6.5L327.2,156.5z"/>
					<path class="st7" d="M333.6,157.2l1.4-9.7l2,0.2l1.5,10l-1.4-0.1l-0.2-1.8l-1.6-0.2l-0.2,1.7L333.6,157.2z M336.7,154.5l-0.7-5
						l0,0l-0.6,4.9L336.7,154.5z"/>
					<path class="st7" d="M339.5,157.8v-9.9l1.2,0.1l2.1,6.1l-0.1-2.7v-3.2l1.4,0.1v9.9l-1.1-0.1l-2.2-6.4l0.1,2.6v3.5L339.5,157.8z
						"/>
					<path class="st7" d="M346,158.5v-8.6l-1.2-0.1v-1.3l3.8,0.4v1.3l-1.1-0.1v8.6L346,158.5z"/>
					<path class="st7" d="M349.5,158.8v-9.9l3.3,0.3v1.3l-1.8-0.2v2.9l1.7,0.2v1.3l-1.7-0.2v3.1l1.9,0.2v1.3L349.5,158.8z"/>
					<path class="st7" d="M354,159.3v-9.9l2.2,0.2c0.7,0.1,1.3,0.3,1.6,0.8c0.3,0.5,0.5,1.1,0.5,1.9l0,4.5c0,1-0.2,1.7-0.5,2.1
						c-0.3,0.4-0.9,0.6-1.6,0.5L354,159.3z M355.6,158.3l0.5,0.1c0.3,0,0.5,0,0.6-0.2c0.1-0.2,0.2-0.5,0.2-1l0-4.9
						c0-0.5-0.1-0.9-0.2-1.1s-0.3-0.4-0.6-0.4l-0.4,0V158.3z"/>
				</g>
			</g>
			<g>
				<polygon class="st3" points="301.6,191.7 345,197.1 371,185.7 329.6,180.8 				"/>
				<polygon class="st9" points="309.7,191 343,195.2 363,186.4 331.2,182.7 				"/>
				<polygon class="st3" points="301.6,191.7 300.5,279.6 342.7,291 345,197.1 				"/>
				<polygon class="st5" points="345,197.1 371,185.7 369.3,279.3 342.7,291 				"/>
			</g>
			<g>
				<polygon class="st3" points="198.2,304.8 194.6,195.8 158.5,189.4 161.9,295.5 				"/>
				<g>
					<line class="st4" x1="161.1" y1="228" x2="193.7" y2="236"/>
					<line class="st4" x1="162.7" y1="231.9" x2="194" y2="239.8"/>
					<line class="st4" x1="163" y1="252.3" x2="194.3" y2="260.3"/>
					<line class="st4" x1="161.4" y1="249.1" x2="194" y2="257.7"/>
				</g>
				<polygon class="st5" points="194.6,195.8 224.2,187.5 225.6,281.9 198.2,304.8 				"/>
				<polygon class="st3" points="158.5,189.4 199.6,179.6 224.2,187.5 194.6,195.8 				"/>
				<polygon class="st10" points="161.5,195.4 191.7,200.4 192.1,222.3 162.2,216.7 				"/>
				<g>
					<path class="st7" d="M167,206l-0.8-6.7l0.9,0.1l0.5,4.8l0.6-4.6l0.8,0.1l0.6,4.8l0.4-4.6l0.9,0.1l-0.8,6.5l-1-0.2l-0.6-4.5
						l-0.6,4.3L167,206z"/>
					<path class="st7" d="M171.7,206.8v-6.6l2.2,0.4v0.9l-1.2-0.2v1.9l1.2,0.2v0.8l-1.2-0.2v2.1l1.3,0.2v0.9L171.7,206.8z"/>
					<path class="st7" d="M175.9,207.5l0.9-6.4l1.3,0.2l1,6.7l-0.9-0.1l-0.2-1.2l-1.1-0.2l-0.1,1.2L175.9,207.5z M178,205.8
						l-0.4-3.4l0,0l-0.4,3.2L178,205.8z"/>
					<path class="st7" d="M181.2,205.2l-0.3-0.1v3.1l-1-0.2v-6.6l1.7,0.3c0.3,0.1,0.6,0.2,0.8,0.3c0.2,0.2,0.3,0.4,0.3,0.6
						c0.1,0.3,0.1,0.6,0.1,1c0,0.4,0,0.7-0.1,0.9c-0.1,0.2-0.2,0.3-0.5,0.3c0.2,0.1,0.4,0.3,0.5,0.5c0.1,0.3,0.1,0.8,0.1,1.7
						c0,0.8,0,1.3,0,1.4l-1-0.2c0-0.1,0-0.8,0-2.4c0-0.3,0-0.5-0.1-0.6S181.4,205.2,181.2,205.2z M180.9,204.4l0.4,0.1
						c0.1,0,0.2,0,0.3,0c0.1,0,0.1-0.1,0.1-0.3c0-0.1,0-0.3,0-0.6v0c0-0.4,0-0.6-0.1-0.7c-0.1-0.1-0.2-0.2-0.4-0.2l-0.3-0.1V204.4z"
						/>
					<path class="st7" d="M183.7,208.7v-6.6l2.2,0.4v0.9l-1.2-0.2v1.9l1.2,0.2v0.8l-1.2-0.2v2.1l1.3,0.2v0.9L183.7,208.7z"/>
					<path class="st7" d="M166.8,214.5v-6.6l1,0.2v2.7l0.9,0.1v-2.7l1,0.2v6.6l-1-0.2v-3.1l-0.9-0.1v3.1L166.8,214.5z"/>
					<path class="st7" d="M170.7,215.1v-6.6l1,0.2v6.6L170.7,215.1z"/>
					<path class="st7" d="M174.1,212.5l-0.3-0.1v3.1l-1-0.2v-6.6l1.7,0.3c0.3,0.1,0.6,0.2,0.8,0.3c0.2,0.2,0.3,0.4,0.3,0.6
						c0.1,0.3,0.1,0.6,0.1,1c0,0.4,0,0.7-0.1,0.9c-0.1,0.2-0.2,0.3-0.5,0.3c0.2,0.1,0.4,0.3,0.5,0.5s0.1,0.8,0.1,1.7
						c0,0.8,0,1.3,0,1.4l-1-0.2c0-0.1,0-0.8,0-2.4c0-0.3,0-0.5-0.1-0.6S174.3,212.6,174.1,212.5z M173.8,211.7l0.4,0.1
						c0.1,0,0.2,0,0.3,0c0.1,0,0.1-0.1,0.1-0.3c0-0.1,0-0.3,0-0.6v0c0-0.4,0-0.6-0.1-0.7c-0.1-0.1-0.2-0.2-0.4-0.2l-0.3-0.1V211.7z"
						/>
					<path class="st7" d="M176.6,216v-6.6l1,0.2v6.6L176.6,216z"/>
					<path class="st7" d="M178.7,216.4v-6.6l0.8,0.1l1.4,4.2l-0.1-1.8v-2.2l0.9,0.1v6.6l-0.7-0.1l-1.4-4.3l0.1,1.7v2.4L178.7,216.4z
						"/>
					<path class="st7" d="M184,217.3c-0.4-0.1-0.7-0.3-1-0.6c-0.2-0.4-0.4-0.9-0.4-1.6v-2.9c0-0.6,0.1-1.1,0.4-1.3s0.6-0.4,1.1-0.3
						c0.7,0.1,1.1,0.4,1.2,0.9c0.1,0.3,0.2,0.7,0.2,1.2v0.5l-0.9-0.1v-0.7c0-0.3,0-0.5-0.1-0.7c-0.1-0.1-0.2-0.2-0.4-0.2
						c-0.2,0-0.3,0-0.4,0.2s-0.1,0.4-0.1,0.8v2.9c0,0.4,0,0.7,0.1,0.9c0.1,0.2,0.2,0.3,0.4,0.3s0.3,0,0.4-0.2
						c0.1-0.2,0.1-0.5,0.1-0.9v-0.9l-0.5-0.1v-0.7l1.4,0.2v3.6l-0.5-0.1l-0.2-0.7c-0.1,0.2-0.2,0.4-0.3,0.5
						C184.4,217.3,184.2,217.3,184,217.3z"/>
				</g>
			</g>
			<g>
				<polygon class="st3" points="202,150 206.5,304.2 244.9,314.9 242.7,155.6 				"/>
				<g>
					<line class="st4" x1="207.5" y1="162.3" x2="211.2" y2="293.7"/>
					<line class="st4" x1="207.3" y1="154.4" x2="207.4" y2="158.4"/>
					<line class="st4" x1="213.6" y1="156" x2="216.4" y2="294.7"/>
					<line class="st4" x1="219.9" y1="157.5" x2="221.9" y2="296.5"/>
					<line class="st4" x1="226.1" y1="158.3" x2="228" y2="297.1"/>
					<line class="st4" x1="232.7" y1="160.3" x2="234.5" y2="299.9"/>
					<line class="st4" x1="239.4" y1="181.9" x2="240.9" y2="300.2"/>
					<line class="st4" x1="239.2" y1="160.5" x2="239.4" y2="176.3"/>
				</g>
				<g>
					<polygon class="st7" points="279.2,147.3 323,245 323,337.3 273.6,316.9 					"/>
					<line class="st6" x1="301.9" y1="208.1" x2="301.9" y2="237.1"/>
				</g>
				<polygon class="st5" points="242.7,155.6 279.2,147.3 279.2,323.8 244.1,315 				"/>
				<g>
					<line class="st6" x1="271.9" y1="163" x2="272.9" y2="309.3"/>
					<line class="st6" x1="271.8" y1="154" x2="271.8" y2="158.4"/>
					<line class="st6" x1="265.4" y1="156.2" x2="266.8" y2="308.4"/>
					<line class="st6" x1="259.3" y1="157.6" x2="260.2" y2="308.4"/>
					<line class="st6" x1="252.7" y1="160.4" x2="253.8" y2="305.2"/>
					<line class="st6" x1="246.2" y1="161.2" x2="247.9" y2="303.6"/>
				</g>
				<polygon class="st3" points="202,150 241.8,143.1 279.2,147.3 242.7,155.6 				"/>
				<polygon class="st9" points="210,149.9 241.5,144.4 271.2,147.7 242.2,154.3 				"/>
				<polygon class="st8" points="245.2,182.6 277.9,173 277.9,192.7 245.2,203.4 				"/>
				<g>
					<path class="st7" d="M256.9,193.3c-0.4,0.6-1.1,1-1.9,1.3s-1.4,0.2-1.9,0c-0.4-0.3-0.7-0.8-0.7-1.6l0-1.8l1.8-0.6l0,1.8
						c0,0.6,0.1,0.9,0.3,0.9c0.1,0,0.2,0,0.4,0c0.3-0.1,0.5-0.2,0.6-0.5c0.1-0.2,0.1-0.5,0.1-1l0-7.9l1.9-0.6l0,7.8
						C257.5,192,257.3,192.7,256.9,193.3z"/>
					<path class="st7" d="M264,191c-0.4,0.6-1.1,1.1-2,1.4c-0.9,0.3-1.6,0.3-2.1-0.1c-0.4-0.4-0.7-1-0.7-2l0-4.7
						c0-1.9,0.9-3.1,2.7-3.7c0.9-0.3,1.6-0.3,2.1,0.1c0.4,0.3,0.6,1,0.6,1.9l0,4.7C264.6,189.6,264.4,190.4,264,191z M261.2,190.9
						c0.1,0.2,0.3,0.3,0.7,0.1c0.3-0.1,0.6-0.3,0.7-0.6s0.2-0.7,0.2-1.3l0-4.8c0-0.5-0.1-0.8-0.2-1c-0.1-0.2-0.3-0.2-0.6-0.1
						s-0.5,0.3-0.7,0.5c-0.1,0.3-0.2,0.6-0.2,1.1l0,4.8C261.1,190.3,261.1,190.7,261.2,190.9z"/>
					<path class="st7" d="M271.5,181.6c0,1.1-0.3,1.9-1.1,2.4c0.9,0,1.3,0.6,1.3,2l0,0.3c0,1-0.2,1.9-0.6,2.4
						c-0.4,0.6-1.1,1-2.1,1.3l-2.7,0.9l-0.1-10.3l2.7-0.8c0.9-0.3,1.6-0.3,1.9-0.1c0.4,0.2,0.6,0.8,0.6,1.6L271.5,181.6z
						 M268.2,184.2l0.7-0.2c0.3-0.1,0.5-0.3,0.6-0.5c0.1-0.2,0.1-0.6,0.1-1.1l0-0.6c0-0.4-0.1-0.6-0.2-0.7c-0.1-0.1-0.3-0.1-0.6,0
						l-0.6,0.2L268.2,184.2z M268.2,189.1l0.7-0.2c0.4-0.1,0.6-0.3,0.8-0.6c0.1-0.3,0.2-0.7,0.2-1.2l0-0.8c0-0.5-0.1-0.9-0.2-1.1
						c-0.1-0.2-0.4-0.2-0.7-0.1l-0.8,0.2L268.2,189.1z"/>
				</g>
			</g>
			<g>
				<polygon class="st3" points="315.3,231.9 278.3,248.1 328.4,258.5 357.9,238.4 				"/>
				<polygon class="st9" points="315.7,233.8 283.8,247.7 327,256.7 352.4,239.4 				"/>
				<polygon class="st3" points="278.3,248.1 279.2,323.8 327.8,335.9 328.4,258.5 				"/>
				<polygon class="st7" points="286.1,313.6 285.6,300.9 314.3,308.5 314.3,321.2 				"/>
				<polygon class="st10" points="282.4,258.8 316.2,266.3 316.7,290.8 283.2,282.7 				"/>
				<g>
					<path class="st7" d="M288.2,271l-0.9-7.9l1,0.2l0.6,5.6l0.7-5.3l0.9,0.2l0.7,5.6l0.5-5.4l1.1,0.2l-0.9,7.5l-1.2-0.2l-0.7-5.3
						l-0.7,5L288.2,271z"/>
					<path class="st7" d="M293.6,272.2v-7.7l2.6,0.5v1l-1.4-0.3v2.2l1.3,0.3v1l-1.3-0.3v2.4l1.5,0.3v1L293.6,272.2z"/>
					<path class="st7" d="M298.4,273.2l1.1-7.4l1.5,0.3l1.2,7.9l-1.1-0.2l-0.2-1.4l-1.2-0.3l-0.2,1.3L298.4,273.2z M300.8,271.4
						l-0.5-4l0,0l-0.5,3.8L300.8,271.4z"/>
					<path class="st7" d="M304.6,270.9l-0.4-0.1v3.6l-1.2-0.2v-7.7l1.9,0.4c0.4,0.1,0.7,0.2,0.9,0.4c0.2,0.2,0.3,0.5,0.4,0.8
						s0.1,0.7,0.1,1.2s0,0.8-0.1,1s-0.3,0.3-0.5,0.4c0.3,0.1,0.5,0.3,0.6,0.7c0.1,0.3,0.2,1,0.2,2c0,1,0,1.5,0,1.6l-1.2-0.3
						c0-0.1,0-1,0-2.8c0-0.3,0-0.6-0.1-0.7C305,271.1,304.8,271,304.6,270.9z M304.2,269.9l0.5,0.1c0.1,0,0.3,0,0.3,0
						c0.1-0.1,0.1-0.2,0.1-0.3c0-0.2,0-0.4,0-0.7v0c0-0.4,0-0.7-0.1-0.8c-0.1-0.1-0.2-0.2-0.5-0.3l-0.4-0.1V269.9z"/>
					<path class="st7" d="M307.4,275.2v-7.7l2.6,0.5v1l-1.4-0.3v2.2l1.3,0.3v1l-1.3-0.3v2.4l1.5,0.3v1L307.4,275.2z"/>
					<path class="st7" d="M287.9,279.4v-7.7l1.2,0.3v3.1l1,0.2v-3.1l1.2,0.3v7.7l-1.2-0.2v-3.6l-1-0.2v3.6L287.9,279.4z"/>
					<path class="st7" d="M292.4,280.4v-7.7l1.2,0.3v7.7L292.4,280.4z"/>
					<path class="st7" d="M296.3,277.6l-0.4-0.1v3.6l-1.2-0.3v-7.7l1.9,0.4c0.4,0.1,0.7,0.2,0.9,0.4c0.2,0.2,0.3,0.5,0.4,0.8
						c0.1,0.3,0.1,0.7,0.1,1.2s0,0.8-0.1,1c-0.1,0.2-0.3,0.3-0.6,0.4c0.3,0.1,0.5,0.3,0.6,0.7s0.2,1,0.2,2c0,1,0,1.5,0,1.6l-1.2-0.3
						c0-0.1,0-1,0-2.8c0-0.3,0-0.6-0.1-0.7C296.8,277.8,296.6,277.7,296.3,277.6z M296,276.6l0.5,0.1c0.1,0,0.3,0,0.3,0
						c0.1-0.1,0.1-0.2,0.1-0.3s0-0.4,0-0.7v0c0-0.4,0-0.7-0.1-0.8s-0.2-0.2-0.5-0.3l-0.4-0.1V276.6z"/>
					<path class="st7" d="M299.3,281.9v-7.7l1.2,0.2v7.7L299.3,281.9z"/>
					<path class="st7" d="M301.6,282.4v-7.7l0.9,0.2l1.6,5l-0.1-2.1v-2.5l1.1,0.2v7.7l-0.8-0.2l-1.7-5.1l0.1,2v2.8L301.6,282.4z"/>
					<path class="st7" d="M307.7,283.8c-0.5-0.1-0.9-0.4-1.1-0.8c-0.3-0.4-0.4-1.1-0.4-1.8v-3.3c0-0.7,0.1-1.2,0.4-1.5
						c0.3-0.3,0.7-0.4,1.3-0.3c0.8,0.2,1.2,0.5,1.4,1.1c0.1,0.4,0.2,0.8,0.2,1.4v0.5l-1.1-0.2V278c0-0.4,0-0.6-0.1-0.8
						c-0.1-0.2-0.2-0.3-0.4-0.3s-0.4,0-0.4,0.2c-0.1,0.2-0.1,0.4-0.1,0.9v3.3c0,0.5,0,0.9,0.1,1.1c0.1,0.2,0.2,0.3,0.4,0.4
						s0.4,0,0.5-0.2c0.1-0.2,0.1-0.5,0.1-1v-1l-0.6-0.1v-0.9l1.6,0.3v4.2L309,284l-0.2-0.8c-0.1,0.2-0.2,0.4-0.4,0.5
						C308.2,283.8,308,283.8,307.7,283.8z"/>
				</g>
			</g>
			<g>
				<g>
					<polygon class="st3" points="328.7,215.7 327.8,335.9 378.3,349.7 382,225 					"/>
					<line class="st4" x1="335.3" y1="221.2" x2="334.2" y2="325.9"/>
					<line class="st4" x1="342" y1="222.8" x2="341.4" y2="328.8"/>
					<line class="st4" x1="350.6" y1="225.1" x2="350.2" y2="332.2"/>
					<line class="st4" x1="360.5" y1="227.1" x2="359.5" y2="335.1"/>
					<line class="st4" x1="371.8" y1="229.1" x2="368.8" y2="337.3"/>
					<polygon class="st3" points="382,225 410.2,208.8 359.3,201.4 328.7,215.7 					"/>
					<polygon class="st9" points="379.4,222.6 402,209.7 361.3,203.8 336.9,215.2 					"/>
					<polygon class="st5" points="410.2,208.8 405.6,353.3 378.3,349.7 382,225 					"/>
					<line class="st6" x1="387.5" y1="228.2" x2="384.5" y2="344.9"/>
					<line class="st6" x1="394.9" y1="223.1" x2="392.3" y2="338.1"/>
					<line class="st6" x1="402.9" y1="217.5" x2="400.9" y2="335.6"/>
				</g>
				<g>
					<polygon class="st10" points="341.5,246.6 341.5,270.4 330,268.5 331,261.5 318.4,271.8 330.7,282.6 331.1,277.4 350.4,281.9 
						351.1,251 					"/>
					<circle class="st3" cx="331.9" cy="276.7" r="1.4"/>
					<circle class="st3" cx="337.7" cy="278.2" r="1.4"/>
					<circle class="st3" cx="343.5" cy="279.7" r="1.4"/>
					<circle class="st3" cx="349.3" cy="281.2" r="1.4"/>
					<circle class="st3" cx="350" cy="274" r="1.4"/>
					<circle class="st3" cx="350.3" cy="266" r="1.4"/>
					<circle class="st3" cx="350.7" cy="258.1" r="1.4"/>
					<circle class="st3" cx="350.5" cy="251.7" r="1.4"/>
					<circle class="st3" cx="346.5" cy="248.9" r="1.4"/>
					<circle class="st3" cx="341.8" cy="246.6" r="1.4"/>
					<circle class="st3" cx="341.4" cy="254.3" r="1.4"/>
					<circle class="st3" cx="341" cy="262.1" r="1.4"/>
					<circle class="st3" cx="340.6" cy="269.8" r="1.4"/>
					<circle class="st3" cx="330.6" cy="268.6" r="1.4"/>
					<circle class="st3" cx="330.9" cy="261.7" r="1.4"/>
					<circle class="st3" cx="318.9" cy="271.7" r="1.4"/>
					<circle class="st3" cx="330.7" cy="283.6" r="1.4"/>
					<circle class="st3" cx="323.4" cy="276.7" r="1.4"/>
					<circle class="st3" cx="324.3" cy="267" r="1.4"/>
				</g>
			</g>
		</g>
		<g>
			<polyline class="st3" points="0,323.1 132.1,263.9 437,349.6 374,397.3 			"/>
			<polyline class="st3" points="0,339.2 134.7,279.2 381.7,348.6 318.1,397.3 			"/>
			<polyline class="st7" points="134.7,279.2 134.7,290.1 370.4,356.7 381.7,348.6 138.5,280.6 			"/>
			<polyline class="st11" points="0,350.4 134.7,290.1 369.8,356.2 			"/>
			<polygon class="st7" points="500,396.8 437,349.6 374.7,396.8 			"/>
		</g>
		<g>
			<g>
				<ellipse class="st0" cx="117.2" cy="334.4" rx="42.6" ry="19.6"/>
				<ellipse class="st1" cx="117.2" cy="334.4" rx="42.6" ry="19.6"/>
			</g>
			<g>
				<g>
					<path class="st3" d="M127.6,98.1c0,0,3,7.1,2.4,10.7c-0.6,3.6-8.6,6.6-9.8,7.1c-1.2,0.6-7.4-2.1-7.4-8.9S124,92.4,127.6,98.1z"
						/>
					<g>
						<path class="st7" d="M124.1,78.7l16.8-1.9c3.3-0.4,6.3,2,6.6,5.4l0,0c0.3,3.4-2.3,6.4-5.8,6.5l-15.5,0.3L124.1,78.7z"/>
						<path class="st3" d="M126.1,75.1c0,0,3.6-1.2,6,0c2.4,1.2,4.5,3,4.2,4.2c-0.3,1.2-2.1,0.9-4.5,1.2c-2.4,0.3-5,2-5.5,0.7
							C125.8,79.9,126.1,75.1,126.1,75.1z"/>
						<path class="st7" d="M134.9,80.3l16.9-0.4c3.3-0.1,6.1,2.6,6.1,5.9l0,0c0,3.4-2.9,6.2-6.3,5.9l-15.5-1.1L134.9,80.3z"/>
					</g>
				</g>
				<path class="st7" d="M128.4,80.3l8.6,0.2c0,0,1.7,1.1,1.9,3.6c0.2,2.5-0.8,6.1-0.8,6.1H129c0,0-1.9-1.3-2.7-3.8
					C125.6,83.9,128.4,80.3,128.4,80.3z"/>
				<path class="st7" d="M125.3,119.2c0,0,10.8,1.3,16.4,1.8c5.5,0.5,18.1-6.5,25.1-8.4c8.4-2.2,12.7,2.5,14.9,5.5
					c2.2,2.9,17.5,13.5,17.5,13.5l2.9,8l-12.4,4c0,0-4.7-5.8-12-14.9c-7.3-9.1-10.5-13.7-16.4-10.1c-5.9,3.6-14.2,10.1-20.8,8.7
					C134,125.7,125.3,119.2,125.3,119.2z"/>
				<g>
					<path class="st10" d="M130.1,325.8l0.9,0.3l17.6,5.8c0,0,2.2,1.3,1.6,3.2c-0.6,1.9-19.1,4.1-26.4,4.1c-7.3,0-12.1-0.6-12.1-3.5
						C111.6,332.8,130.1,325.8,130.1,325.8z"/>
					<path class="st3" d="M150.1,335.1c0.3-1-0.1-1.7-0.6-2.3c-4.5,1.3-11.4,2.8-21.3,3.4c-9.1,0.6-14,0.5-16.6,0.3
						c0.8,2.2,5.3,2.7,12,2.7C131,339.2,149.5,337,150.1,335.1z"/>
				</g>
				<g>
					<path class="st10" d="M97.9,315c0,0,9.2-3.8,10.8-0.6c1.6,3.2-2.2,8-4.5,8.9c-2.2,1-3.8,1.6-5.1,3.2c-1.3,1.6-5.1,5.4-9.2,4.8
						c-4.1-0.6-4.1-6.1-3.8-7C86.4,323.3,97.9,315,97.9,315z"/>
					<path class="st3" d="M107.9,313.5c-0.3,2.6-1,5.4-2.9,6.5c-3.8,2.1-5.5,1.7-8.9,5.9c-3.4,4.2-8.7,3.1-8.7,3.1l-0.4,0.3
						c0.6,1,1.5,1.7,2.9,2c4.1,0.6,8-3.2,9.2-4.8c1.3-1.6,2.9-2.2,5.1-3.2c2.2-1,6.1-5.7,4.5-8.9C108.5,314,108.2,313.7,107.9,313.5
						z"/>
				</g>
				<g>
					<path class="st7" d="M90.6,181.8c0,0-2.5,10.5-0.6,15.3c1.9,4.8,2.2,12.4,2.5,15c0.3,2.5-3.2,23.9-4.5,35
						c-1.3,11.1-6.7,23.6-4.5,31.5c2.2,8,0.3,37,1,41.4c0.6,4.5,1.9,8.3,2.9,8.9c1,0.6,4.5,1,7.3-0.3c2.9-1.3,4.8-10.8,5.4-13.7
						c0.6-2.9,3.2-36.3,4.1-41.4c1-5.1,3.8-28,3.8-28s2.5,18.8,1.9,23.9c-0.6,5.1-2.9,15-1.9,23.9c1,8.9,2.5,42,2.5,42
						s2.9,1.6,4.5,1.6c1.6,0,13.7-8.3,15-11.1c1.3-2.9,0-8,0-8s2.2-50.6,4.5-67.8c2.2-17.2-2.9-64-2.9-64S106.5,191.7,90.6,181.8z"
						/>
					<polyline class="st12" points="107.8,241.7 103.6,218.5 96.6,206.4 					"/>
				</g>
				<g>
					<path class="st3" d="M128.8,72.7c0,0,1.5,4.2,1.5,6.3c0,2.1-1.2,3.6-0.9,5.1c0.3,1.5,2.7,3.9,0.6,7.8
						c-2.1,3.9-0.3,9.6-3.3,10.8c-3,1.2-6.3,1.2-6.3,1.2l-0.9,6.6l-15.1-4.8v-8.7v-3.3c0,0,6.3,0.3,8.7-2.7c2.4-3,1.8-9.3,3-13.5
						c1.2-4.2,6-6.9,8.1-6.9C126.4,70.6,128.8,72.7,128.8,72.7z"/>
					<g>
						<g>
							<path class="st7" d="M133.1,67.3c-0.5,2.1-1.9,4-4.3,5.4c-3,1.8-6.9,1.2-6.9,2.7c0,1.5,2.7,1.2,1.8,5.1
								c-0.9,3.9-3.6,6.3-3.6,6.3s2.7,3.3,0,3.9c-2.7,0.6-3.3,4.5-6.6,5.4c-3.3,0.9-6.3,3.3-9,0.9c-2.7-2.4-11.4-12.3-12.6-19
								s5.4-13.5,5.4-13.5s-0.3-3.9,2.1-5.4c2.4-1.5,8.9-2,9.5-4.4c2.5-10,19.9-0.6,22.9,4.7C133,61.7,133.8,64.7,133.1,67.3z"/>
							<path class="st13" d="M127.7,65.1c0,0,0.2,4.3-3.6,6.4c-3.9,2.1-12.5,0.4-15.5,4.5c-3,4.1-0.9,10.5-5.4,11.6"/>
							<path class="st13" d="M121,78.6c0,0-4.1,1.3-5.8,3.9c-1.7,2.6-2.6,8.6-7.7,10.1"/>
						</g>
						<path class="st3" d="M120.4,92.3c0,0-2.4-7.2-5.7-5.4s-0.6,7.2,1.2,8.7c1.8,1.5,3.9-0.6,3.9-0.6"/>
					</g>
				</g>
				<g>
					<g>
						<path class="st10" d="M97.2,107c0,0-5.6,3.7-9.2,10.1c-3.6,6.3,1.1,35.7,2.3,43.5c1.2,7.8-1.5,20.8,0.6,24.4
							c2.1,3.6,9,6.6,15.7,7.2c6.6,0.6,16.9-0.3,20.8-1.5c3.9-1.2,6-4.5,6-6c0-1.5-0.3-19.9-0.3-23.8c0-3.9-0.3-31.9-2.7-37.3
							s-6.9-9-10.5-10.8C116.2,111,102.6,104.3,97.2,107z"/>
						<path class="st14" d="M123.9,142.8c0,0-3.2,2.9-12.3,4.1"/>
						<path class="st14" d="M117.4,155.4c-0.9,0.9-1.9,1.7-2.9,2.4"/>
						<path class="st14" d="M125.1,142.8c0,0-2,5.3-5.4,9.9"/>
						<path class="st11" d="M123.6,175.3c-8.8,11.7-22,13.2-22,13.2s12.9,0.3,21.4-8.8"/>
					</g>
					<path class="st10" d="M99.9,101.9c0,0,8.7,0.6,14.4,3.9c5.7,3.3,9.6,6.6,11.7,7.2c2.1,0.6,6,0.9,4.8,1.2
						c-1.2,0.3-2.7,0.6-5.7,1.5c-3,0.9-7.2-0.9-13.5-3.9c-6.3-3-13.2-4.8-14.4-4.8S97.5,101.9,99.9,101.9z"/>
				</g>
				<path class="st11" d="M151.1,132c0,0,10,6.7,11.5,11.7"/>
				<g>
					<path class="st3" d="M150.5,121.2L140,96.5c0,0-2.4-2.7-4.5-3.9c-2.1-1.2-0.6-3-0.6-3s3,0.6,3-0.6s-0.3-5.1-0.6-6
						c-0.3-0.9-1.2-1.5-1.2-2.4c0-0.9,2.1-2.1,4.5-1.5c2.4,0.6,2,0.3,2,0.3c3.4-0.8,4.1,0,5.8,3c1.4,2.5,1.5,6,1.5,7.5
						c0,1.5-1.8,6-1.8,6l12.9,25L150.5,121.2z"/>
					<path class="st10" d="M151.7,128.1c0,0-3.9,0-3.6-0.9c0.3-0.9-0.9-4.2-0.9-5.7c0-1.5,2.7-3.3,6-3.9c3.3-0.6,6.9,0.6,8.1,0.9
						c1.2,0.3,1.5,2.7,2.4,4.2c0.9,1.5,1.5,3.3,0.9,4.5c-0.6,1.2-2.4,1.8-2.4,1.8L151.7,128.1z"/>
					<path class="st10" d="M108.4,123.6c0,0,2.1-7.2,6.3-8.7c4.2-1.5,9.3,0.6,14.4,3.9c5.1,3.3,22,13.2,22,13.2l-1.8-7.2
						c0,0,10.8-3.3,13.5,1.8c2.7,5.1,4.5,23.8,4.5,26.2c0,2.4-6.3,4.5-10.2,4.2c-3.9-0.3-38.5-17.5-38.5-17.5"/>
					<path class="st11" d="M155.5,134.9c0,0,4.7,1.2,7.9,5.3"/>
				</g>
			</g>
		</g>
	</g>
</g>
</svg>
