<?xml version="1.0" encoding="utf-8"?>
<!-- Generator: Adobe Illustrator 19.0.0, SVG Export Plug-In . SVG Version: 6.00 Build 0)  -->
<svg version="1.1" id="Layer_1" xmlns="http://www.w3.org/2000/svg" xmlns:xlink="http://www.w3.org/1999/xlink" x="0px" y="0px"
	 viewBox="0 0 297.5 48.5" style="enable-background:new 0 0 297.5 48.5;" xml:space="preserve">
<g id="XMLID_1_">
	<path id="XMLID_16_" d="M39.6,27c0,11.2-7.1,19.4-19.1,19.4c-11.1,0-19.1-6.6-19.1-19h8.1c0,7.5,3.6,11.2,11,11.2
		c7.5,0,10.9-5.2,10.9-11.7V9.7H18.3V2.1c7.1,0,14.2,0,21.3,0V27z"/>
	<path id="XMLID_18_" d="M76.5,30.3c0,8.8-6,16-16,16s-15.9-7.1-15.9-16c0-8.8,6.1-16,15.8-16S76.5,21.5,76.5,30.3z M52.2,30.3
		c0,4.7,2.8,9,8.3,9s8.3-4.3,8.3-9c0-4.6-3.2-9.1-8.3-9.1C55.1,21.2,52.2,25.7,52.2,30.3z"/>
	<path id="XMLID_21_" d="M89.3,2.1v17c1.8-3.2,6.8-4.9,10.1-4.9c8.9,0,15.6,5.5,15.6,16c0,10.1-6.8,16-15.8,16
		c-3.7,0-7.5-1.2-9.9-4.9l-0.5,4.2h-7.1V2.1H89.3z M89.8,30.2c0,5.5,4.1,9,8.9,9c4.8,0,8.7-3.7,8.7-9c0-5.5-3.9-8.9-8.7-8.9
		C93.9,21.3,89.8,24.9,89.8,30.2z"/>
	<path id="XMLID_24_" d="M141.7,32.8h-12.3v12.8h-8.2V2.1c6.8,0,13.7-0.1,20.5-0.1C162.9,2,163,32.8,141.7,32.8z M129.4,25.2h12.3
		c10.5,0,10.4-15.4,0-15.4h-12.3V25.2z"/>
	<path id="XMLID_27_" d="M191.7,30.3c0,8.8-6,16-16,16s-15.9-7.1-15.9-16c0-8.8,6.1-16,15.8-16S191.7,21.5,191.7,30.3z M167.5,30.3
		c0,4.7,2.8,9,8.3,9c5.5,0,8.3-4.3,8.3-9c0-4.6-3.2-9.1-8.3-9.1C170.3,21.2,167.5,25.7,167.5,30.3z"/>
	<path id="XMLID_30_" d="M204,14.9l0.6,3.5c2.4-3.8,5.5-4.3,8.6-4.3c3.2,0,6.2,1.2,7.9,2.9l-3.4,6.6c-1.6-1.3-3-2-5.5-2
		c-4,0-7.6,2.1-7.6,7.8v16.2H197V14.9H204z"/>
	<path id="XMLID_32_" d="M236.6,6.3V15h8.4v6.5h-8.5v13.2c0,2.9,1.6,4.3,4,4.3c1.2,0,2.5-0.4,3.7-0.9l2.1,6.5
		c-2.2,0.9-4,1.2-6.3,1.3c-6.6,0.2-11-3.5-11-11.2V21.5h-5.7V15h5.7V7.1L236.6,6.3z"/>
	<path id="XMLID_34_" d="M275,14.9h7.3v30.6h-7.1l-0.4-4.5c-1.7,3.6-6.5,5.3-9.9,5.4C255.7,46.6,249,41,249,30.2
		c0-10.6,7-16.1,16-16c4.1,0,8,1.9,9.8,5L275,14.9z M256.6,30.2c0,5.8,4,9.3,9.1,9.3c11.9,0,11.9-18.6,0-18.6
		C260.6,21,256.6,24.4,256.6,30.2z"/>
	<path id="XMLID_37_" d="M296.1,2.1v43.4h-7.5V2.1H296.1z"/>
</g>
</svg>
